<svg xmlns="http://www.w3.org/2000/svg" xmlns:xlink="http://www.w3.org/1999/xlink" width="200" zoomAndPan="magnify" viewBox="0 0 150 87.749997" height="117" preserveAspectRatio="xMidYMid meet" version="1.0"><defs><g/><clipPath id="8df484d7db"><path d="M 12 12.714844 L 40.148438 12.714844 L 40.148438 39 L 12 39 Z M 12 12.714844 " clip-rule="nonzero"/></clipPath><clipPath id="128219544a"><path d="M 1.261719 23 L 40.148438 23 L 40.148438 68.804688 L 1.261719 68.804688 Z M 1.261719 23 " clip-rule="nonzero"/></clipPath><clipPath id="4925c88071"><path d="M 30.050781 40.542969 L 1.261719 23.933594 L 1.261719 34.714844 L 32.320312 52.632812 L 20.703125 59.332031 L 1.261719 48.117188 L 1.261719 57.582031 L 20.703125 68.800781 L 40.148438 57.582031 L 40.148438 46.367188 Z M 30.050781 40.542969 " clip-rule="evenodd"/></clipPath><linearGradient x1="88.800092" gradientTransform="matrix(0.00363865, 0, 0, 0.00363546, 1.260088, 12.717741)" y1="3024.586473" x2="9252.087764" gradientUnits="userSpaceOnUse" y2="16409.352293" id="75f1d16cb7"><stop stop-opacity="1" stop-color="rgb(0%, 27.806091%, 56.504822%)" offset="0"/><stop stop-opacity="1" stop-color="rgb(0.0335693%, 27.954102%, 56.652832%)" offset="0.0078125"/><stop stop-opacity="1" stop-color="rgb(0.100708%, 28.250122%, 56.948853%)" offset="0.015625"/><stop stop-opacity="1" stop-color="rgb(0.167847%, 28.546143%, 57.244873%)" offset="0.0234375"/><stop stop-opacity="1" stop-color="rgb(0.234985%, 28.843689%, 57.540894%)" offset="0.03125"/><stop stop-opacity="1" stop-color="rgb(0.302124%, 29.139709%, 57.836914%)" offset="0.0390625"/><stop stop-opacity="1" stop-color="rgb(0.369263%, 29.437256%, 58.131409%)" offset="0.046875"/><stop stop-opacity="1" stop-color="rgb(0.436401%, 29.733276%, 58.427429%)" offset="0.0546875"/><stop stop-opacity="1" stop-color="rgb(0.50354%, 30.030823%, 58.72345%)" offset="0.0625"/><stop stop-opacity="1" stop-color="rgb(0.570679%, 30.326843%, 59.01947%)" offset="0.0703125"/><stop stop-opacity="1" stop-color="rgb(0.637817%, 30.62439%, 59.315491%)" offset="0.078125"/><stop stop-opacity="1" stop-color="rgb(0.704956%, 30.92041%, 59.611511%)" offset="0.0859375"/><stop stop-opacity="1" stop-color="rgb(0.772095%, 31.217957%, 59.907532%)" offset="0.09375"/><stop stop-opacity="1" stop-color="rgb(0.839233%, 31.513977%, 60.202026%)" offset="0.101562"/><stop stop-opacity="1" stop-color="rgb(0.906372%, 31.811523%, 60.498047%)" offset="0.109375"/><stop stop-opacity="1" stop-color="rgb(0.973511%, 32.107544%, 60.794067%)" offset="0.117188"/><stop stop-opacity="1" stop-color="rgb(1.040649%, 32.40509%, 61.090088%)" offset="0.125"/><stop stop-opacity="1" stop-color="rgb(1.107788%, 32.701111%, 61.386108%)" offset="0.132812"/><stop stop-opacity="1" stop-color="rgb(1.174927%, 32.998657%, 61.682129%)" offset="0.140625"/><stop stop-opacity="1" stop-color="rgb(1.242065%, 33.294678%, 61.978149%)" offset="0.148438"/><stop stop-opacity="1" stop-color="rgb(1.309204%, 33.590698%, 62.272644%)" offset="0.15625"/><stop stop-opacity="1" stop-color="rgb(1.376343%, 33.888245%, 62.568665%)" offset="0.164062"/><stop stop-opacity="1" stop-color="rgb(1.443481%, 34.184265%, 62.864685%)" offset="0.171875"/><stop stop-opacity="1" stop-color="rgb(1.51062%, 34.481812%, 63.160706%)" offset="0.179688"/><stop stop-opacity="1" stop-color="rgb(1.577759%, 34.777832%, 63.456726%)" offset="0.1875"/><stop stop-opacity="1" stop-color="rgb(1.644897%, 35.075378%, 63.752747%)" offset="0.195312"/><stop stop-opacity="1" stop-color="rgb(1.712036%, 35.371399%, 64.047241%)" offset="0.203125"/><stop stop-opacity="1" stop-color="rgb(1.779175%, 35.668945%, 64.343262%)" offset="0.210938"/><stop stop-opacity="1" stop-color="rgb(1.846313%, 35.964966%, 64.639282%)" offset="0.21875"/><stop stop-opacity="1" stop-color="rgb(1.913452%, 36.262512%, 64.935303%)" offset="0.226563"/><stop stop-opacity="1" stop-color="rgb(1.980591%, 36.558533%, 65.231323%)" offset="0.234375"/><stop stop-opacity="1" stop-color="rgb(2.047729%, 36.856079%, 65.527344%)" offset="0.242188"/><stop stop-opacity="1" stop-color="rgb(2.114868%, 37.1521%, 65.823364%)" offset="0.25"/><stop stop-opacity="1" stop-color="rgb(2.180481%, 37.449646%, 66.117859%)" offset="0.257812"/><stop stop-opacity="1" stop-color="rgb(2.24762%, 37.745667%, 66.413879%)" offset="0.265625"/><stop stop-opacity="1" stop-color="rgb(2.314758%, 38.041687%, 66.7099%)" offset="0.273438"/><stop stop-opacity="1" stop-color="rgb(2.381897%, 38.339233%, 67.00592%)" offset="0.28125"/><stop stop-opacity="1" stop-color="rgb(2.449036%, 38.635254%, 67.301941%)" offset="0.289063"/><stop stop-opacity="1" stop-color="rgb(2.516174%, 38.9328%, 67.597961%)" offset="0.296875"/><stop stop-opacity="1" stop-color="rgb(2.583313%, 39.228821%, 67.893982%)" offset="0.304688"/><stop stop-opacity="1" stop-color="rgb(2.650452%, 39.526367%, 68.188477%)" offset="0.3125"/><stop stop-opacity="1" stop-color="rgb(2.71759%, 39.822388%, 68.484497%)" offset="0.320313"/><stop stop-opacity="1" stop-color="rgb(2.784729%, 40.119934%, 68.780518%)" offset="0.328125"/><stop stop-opacity="1" stop-color="rgb(2.851868%, 40.415955%, 69.076538%)" offset="0.335938"/><stop stop-opacity="1" stop-color="rgb(2.919006%, 40.713501%, 69.372559%)" offset="0.34375"/><stop stop-opacity="1" stop-color="rgb(2.986145%, 41.009521%, 69.668579%)" offset="0.351563"/><stop stop-opacity="1" stop-color="rgb(3.053284%, 41.307068%, 69.963074%)" offset="0.359375"/><stop stop-opacity="1" stop-color="rgb(3.120422%, 41.603088%, 70.259094%)" offset="0.367188"/><stop stop-opacity="1" stop-color="rgb(3.187561%, 41.900635%, 70.555115%)" offset="0.372211"/><stop stop-opacity="1" stop-color="rgb(3.22113%, 42.048645%, 70.703125%)" offset="0.375"/><stop stop-opacity="1" stop-color="rgb(3.2547%, 42.196655%, 70.851135%)" offset="0.382813"/><stop stop-opacity="1" stop-color="rgb(3.321838%, 42.494202%, 71.147156%)" offset="0.390625"/><stop stop-opacity="1" stop-color="rgb(3.388977%, 42.790222%, 71.443176%)" offset="0.398438"/><stop stop-opacity="1" stop-color="rgb(3.456116%, 43.086243%, 71.739197%)" offset="0.40625"/><stop stop-opacity="1" stop-color="rgb(3.523254%, 43.383789%, 72.033691%)" offset="0.414063"/><stop stop-opacity="1" stop-color="rgb(3.590393%, 43.67981%, 72.329712%)" offset="0.421875"/><stop stop-opacity="1" stop-color="rgb(3.657532%, 43.977356%, 72.625732%)" offset="0.429688"/><stop stop-opacity="1" stop-color="rgb(3.72467%, 44.273376%, 72.921753%)" offset="0.4375"/><stop stop-opacity="1" stop-color="rgb(3.791809%, 44.570923%, 73.217773%)" offset="0.445313"/><stop stop-opacity="1" stop-color="rgb(3.858948%, 44.866943%, 73.513794%)" offset="0.453125"/><stop stop-opacity="1" stop-color="rgb(3.926086%, 45.16449%, 73.808289%)" offset="0.460938"/><stop stop-opacity="1" stop-color="rgb(3.993225%, 45.46051%, 74.104309%)" offset="0.46875"/><stop stop-opacity="1" stop-color="rgb(4.060364%, 45.758057%, 74.40033%)" offset="0.476563"/><stop stop-opacity="1" stop-color="rgb(4.127502%, 46.054077%, 74.69635%)" offset="0.484375"/><stop stop-opacity="1" stop-color="rgb(4.194641%, 46.351624%, 74.992371%)" offset="0.492188"/><stop stop-opacity="1" stop-color="rgb(4.26178%, 46.647644%, 75.288391%)" offset="0.5"/><stop stop-opacity="1" stop-color="rgb(4.328918%, 46.94519%, 75.584412%)" offset="0.507813"/><stop stop-opacity="1" stop-color="rgb(4.396057%, 47.241211%, 75.878906%)" offset="0.515625"/><stop stop-opacity="1" stop-color="rgb(4.463196%, 47.537231%, 76.174927%)" offset="0.523438"/><stop stop-opacity="1" stop-color="rgb(4.530334%, 47.834778%, 76.470947%)" offset="0.53125"/><stop stop-opacity="1" stop-color="rgb(4.597473%, 48.130798%, 76.766968%)" offset="0.539063"/><stop stop-opacity="1" stop-color="rgb(4.663086%, 48.428345%, 77.062988%)" offset="0.546875"/><stop stop-opacity="1" stop-color="rgb(4.730225%, 48.724365%, 77.359009%)" offset="0.554688"/><stop stop-opacity="1" stop-color="rgb(4.797363%, 49.021912%, 77.655029%)" offset="0.5625"/><stop stop-opacity="1" stop-color="rgb(4.864502%, 49.317932%, 77.949524%)" offset="0.570312"/><stop stop-opacity="1" stop-color="rgb(4.931641%, 49.615479%, 78.245544%)" offset="0.578125"/><stop stop-opacity="1" stop-color="rgb(4.998779%, 49.911499%, 78.541565%)" offset="0.585938"/><stop stop-opacity="1" stop-color="rgb(5.065918%, 50.209045%, 78.837585%)" offset="0.59375"/><stop stop-opacity="1" stop-color="rgb(5.133057%, 50.505066%, 79.133606%)" offset="0.601563"/><stop stop-opacity="1" stop-color="rgb(5.200195%, 50.802612%, 79.429626%)" offset="0.609375"/><stop stop-opacity="1" stop-color="rgb(5.267334%, 51.098633%, 79.724121%)" offset="0.617188"/><stop stop-opacity="1" stop-color="rgb(5.334473%, 51.396179%, 80.020142%)" offset="0.625"/><stop stop-opacity="1" stop-color="rgb(5.401611%, 51.6922%, 80.316162%)" offset="0.627789"/><stop stop-opacity="1" stop-color="rgb(5.435181%, 51.841736%, 80.464172%)" offset="0.632812"/><stop stop-opacity="1" stop-color="rgb(5.46875%, 51.989746%, 80.612183%)" offset="0.640625"/><stop stop-opacity="1" stop-color="rgb(5.535889%, 52.285767%, 80.908203%)" offset="0.648438"/><stop stop-opacity="1" stop-color="rgb(5.603027%, 52.581787%, 81.204224%)" offset="0.65625"/><stop stop-opacity="1" stop-color="rgb(5.670166%, 52.879333%, 81.500244%)" offset="0.664063"/><stop stop-opacity="1" stop-color="rgb(5.737305%, 53.175354%, 81.794739%)" offset="0.671875"/><stop stop-opacity="1" stop-color="rgb(5.804443%, 53.4729%, 82.090759%)" offset="0.679688"/><stop stop-opacity="1" stop-color="rgb(5.871582%, 53.768921%, 82.38678%)" offset="0.6875"/><stop stop-opacity="1" stop-color="rgb(5.938721%, 54.066467%, 82.6828%)" offset="0.695312"/><stop stop-opacity="1" stop-color="rgb(6.005859%, 54.362488%, 82.978821%)" offset="0.703125"/><stop stop-opacity="1" stop-color="rgb(6.072998%, 54.660034%, 83.274841%)" offset="0.710938"/><stop stop-opacity="1" stop-color="rgb(6.140137%, 54.956055%, 83.570862%)" offset="0.71875"/><stop stop-opacity="1" stop-color="rgb(6.207275%, 55.253601%, 83.865356%)" offset="0.726563"/><stop stop-opacity="1" stop-color="rgb(6.274414%, 55.549622%, 84.161377%)" offset="0.734375"/><stop stop-opacity="1" stop-color="rgb(6.341553%, 55.847168%, 84.457397%)" offset="0.742188"/><stop stop-opacity="1" stop-color="rgb(6.408691%, 56.143188%, 84.753418%)" offset="0.75"/><stop stop-opacity="1" stop-color="rgb(6.47583%, 56.440735%, 85.049438%)" offset="0.757812"/><stop stop-opacity="1" stop-color="rgb(6.542969%, 56.736755%, 85.345459%)" offset="0.765625"/><stop stop-opacity="1" stop-color="rgb(6.610107%, 57.032776%, 85.639954%)" offset="0.773438"/><stop stop-opacity="1" stop-color="rgb(6.677246%, 57.330322%, 85.935974%)" offset="0.78125"/><stop stop-opacity="1" stop-color="rgb(6.744385%, 57.626343%, 86.231995%)" offset="0.789063"/><stop stop-opacity="1" stop-color="rgb(6.811523%, 57.923889%, 86.528015%)" offset="0.796875"/><stop stop-opacity="1" stop-color="rgb(6.878662%, 58.21991%, 86.824036%)" offset="0.804688"/><stop stop-opacity="1" stop-color="rgb(6.945801%, 58.517456%, 87.120056%)" offset="0.8125"/><stop stop-opacity="1" stop-color="rgb(7.012939%, 58.813477%, 87.416077%)" offset="0.820313"/><stop stop-opacity="1" stop-color="rgb(7.072449%, 59.080505%, 87.68158%)" offset="0.828125"/><stop stop-opacity="1" stop-color="rgb(7.099915%, 59.199524%, 87.799072%)" offset="0.84375"/><stop stop-opacity="1" stop-color="rgb(7.099915%, 59.199524%, 87.799072%)" offset="0.875"/><stop stop-opacity="1" stop-color="rgb(7.099915%, 59.199524%, 87.799072%)" offset="1"/></linearGradient><clipPath id="19bcc6c3e6"><path d="M 29 23 L 40.148438 23 L 40.148438 29 L 29 29 Z M 29 23 " clip-rule="nonzero"/></clipPath></defs><g clip-path="url(#8df484d7db)"><path fill="#0067b0" d="M 24.359375 33.042969 L 33.703125 38.433594 L 40.148438 34.714844 L 40.148438 23.933594 L 20.703125 12.71875 L 12.640625 17.371094 L 32.085938 28.585938 Z M 24.359375 33.042969 " fill-opacity="1" fill-rule="evenodd"/></g><g clip-path="url(#128219544a)"><g clip-path="url(#4925c88071)"><path fill="url(#75f1d16cb7)" d="M 1.261719 23.933594 L 1.261719 68.800781 L 40.148438 68.800781 L 40.148438 23.933594 Z M 1.261719 23.933594 " fill-rule="nonzero"/></g></g><g clip-path="url(#19bcc6c3e6)"><path fill="#003780" d="M 32.085938 28.585938 L 40.148438 23.933594 L 29.613281 27.160156 Z M 32.085938 28.585938 " fill-opacity="1" fill-rule="evenodd"/></g><g fill="#ff00ff" fill-opacity="1"><g transform="translate(40.449353, 58.984516)"><g><path d="M 14.8125 -3.765625 C 15.113281 -3.765625 15.316406 -3.695312 15.421875 -3.5625 C 15.535156 -3.425781 15.59375 -3.234375 15.59375 -2.984375 L 15.59375 -0.78125 C 15.59375 -0.550781 15.535156 -0.363281 15.421875 -0.21875 C 15.316406 -0.0703125 15.113281 0 14.8125 0 L 2.765625 0 C 2.460938 0 2.253906 -0.0703125 2.140625 -0.21875 C 2.035156 -0.363281 1.984375 -0.550781 1.984375 -0.78125 L 1.984375 -16.90625 C 1.984375 -17.15625 2.035156 -17.347656 2.140625 -17.484375 C 2.253906 -17.617188 2.460938 -17.6875 2.765625 -17.6875 L 14.34375 -17.6875 C 14.65625 -17.6875 14.863281 -17.617188 14.96875 -17.484375 C 15.070312 -17.347656 15.125 -17.15625 15.125 -16.90625 L 15.125 -14.671875 C 15.125 -14.441406 15.070312 -14.253906 14.96875 -14.109375 C 14.863281 -13.960938 14.65625 -13.890625 14.34375 -13.890625 L 6.234375 -13.890625 L 6.234375 -10.96875 L 13.4375 -10.96875 C 13.738281 -10.96875 13.941406 -10.898438 14.046875 -10.765625 C 14.160156 -10.628906 14.21875 -10.4375 14.21875 -10.1875 L 14.21875 -8.09375 C 14.21875 -7.851562 14.160156 -7.660156 14.046875 -7.515625 C 13.941406 -7.378906 13.738281 -7.3125 13.4375 -7.3125 L 6.234375 -7.3125 L 6.234375 -3.765625 Z M 14.8125 -3.765625 "/></g></g></g><g fill="#ff00ff" fill-opacity="1"><g transform="translate(57.297165, 58.984516)"><g><path d="M 13.953125 -17.6875 C 14.253906 -17.6875 14.457031 -17.617188 14.5625 -17.484375 C 14.675781 -17.347656 14.734375 -17.15625 14.734375 -16.90625 L 14.734375 -14.671875 C 14.734375 -14.441406 14.675781 -14.253906 14.5625 -14.109375 C 14.457031 -13.960938 14.253906 -13.890625 13.953125 -13.890625 L 9.84375 -13.890625 L 9.84375 -0.78125 C 9.84375 -0.476562 9.773438 -0.269531 9.640625 -0.15625 C 9.503906 -0.0507812 9.3125 0 9.0625 0 L 6.390625 0 C 6.160156 0 5.972656 -0.0507812 5.828125 -0.15625 C 5.679688 -0.269531 5.609375 -0.476562 5.609375 -0.78125 L 5.609375 -13.890625 L 1.484375 -13.890625 C 1.171875 -13.890625 0.960938 -13.960938 0.859375 -14.109375 C 0.753906 -14.253906 0.703125 -14.441406 0.703125 -14.671875 L 0.703125 -16.90625 C 0.703125 -17.15625 0.753906 -17.347656 0.859375 -17.484375 C 0.960938 -17.617188 1.171875 -17.6875 1.484375 -17.6875 Z M 13.953125 -17.6875 "/></g></g></g><g fill="#ff00ff" fill-opacity="1"><g transform="translate(72.720839, 58.984516)"><g><path d="M 17.203125 -0.75 C 17.273438 -0.59375 17.289062 -0.425781 17.25 -0.25 C 17.21875 -0.0820312 17.050781 0 16.75 0 L 13.921875 0 C 13.628906 0 13.410156 -0.0507812 13.265625 -0.15625 C 13.128906 -0.269531 13.007812 -0.488281 12.90625 -0.8125 L 12.140625 -2.921875 L 5.5625 -2.921875 L 4.8125 -0.8125 C 4.707031 -0.488281 4.585938 -0.269531 4.453125 -0.15625 C 4.316406 -0.0507812 4.097656 0 3.796875 0 L 0.96875 0 C 0.675781 0 0.507812 -0.0820312 0.46875 -0.25 C 0.425781 -0.425781 0.441406 -0.59375 0.515625 -0.75 L 6.484375 -16.84375 C 6.585938 -17.132812 6.722656 -17.347656 6.890625 -17.484375 C 7.066406 -17.617188 7.296875 -17.6875 7.578125 -17.6875 L 10.15625 -17.6875 C 10.457031 -17.6875 10.6875 -17.617188 10.84375 -17.484375 C 11 -17.347656 11.140625 -17.132812 11.265625 -16.84375 Z M 8.875 -12.625 L 6.859375 -6.6875 L 10.890625 -6.6875 Z M 8.875 -12.625 "/></g></g></g><g fill="#ff00ff" fill-opacity="1"><g transform="translate(90.321021, 58.984516)"><g/></g></g><g fill="#ff00ff" fill-opacity="1"><g transform="translate(97.602927, 58.984516)"><g><path d="M 14.59375 -9.171875 C 14.644531 -9.148438 14.800781 -9.0625 15.0625 -8.90625 C 15.320312 -8.757812 15.601562 -8.53125 15.90625 -8.21875 C 16.207031 -7.914062 16.472656 -7.515625 16.703125 -7.015625 C 16.941406 -6.515625 17.0625 -5.894531 17.0625 -5.15625 C 17.0625 -4.03125 16.785156 -3.082031 16.234375 -2.3125 C 15.691406 -1.539062 14.941406 -0.960938 13.984375 -0.578125 C 13.023438 -0.191406 11.921875 0 10.671875 0 L 2.765625 0 C 2.460938 0 2.253906 -0.0703125 2.140625 -0.21875 C 2.035156 -0.363281 1.984375 -0.550781 1.984375 -0.78125 L 1.984375 -16.9375 C 1.984375 -17.1875 2.035156 -17.375 2.140625 -17.5 C 2.253906 -17.632812 2.460938 -17.703125 2.765625 -17.703125 L 10.296875 -17.703125 C 11.765625 -17.703125 12.953125 -17.472656 13.859375 -17.015625 C 14.773438 -16.566406 15.453125 -15.96875 15.890625 -15.21875 C 16.335938 -14.476562 16.5625 -13.6875 16.5625 -12.84375 C 16.5625 -11.945312 16.410156 -11.234375 16.109375 -10.703125 C 15.816406 -10.179688 15.515625 -9.800781 15.203125 -9.5625 C 14.890625 -9.332031 14.6875 -9.203125 14.59375 -9.171875 Z M 10.71875 -3.8125 C 11.382812 -3.8125 11.894531 -3.953125 12.25 -4.234375 C 12.613281 -4.515625 12.796875 -4.957031 12.796875 -5.5625 C 12.796875 -6.1875 12.582031 -6.613281 12.15625 -6.84375 C 11.738281 -7.082031 11.207031 -7.203125 10.5625 -7.203125 L 9.9375 -7.203125 C 9.632812 -7.203125 9.429688 -7.269531 9.328125 -7.40625 C 9.222656 -7.550781 9.171875 -7.742188 9.171875 -7.984375 L 9.171875 -10.03125 C 9.171875 -10.28125 9.222656 -10.46875 9.328125 -10.59375 C 9.429688 -10.726562 9.632812 -10.796875 9.9375 -10.796875 L 10.296875 -10.796875 C 11.078125 -10.796875 11.644531 -10.9375 12 -11.21875 C 12.351562 -11.5 12.53125 -11.898438 12.53125 -12.421875 C 12.53125 -13.023438 12.332031 -13.425781 11.9375 -13.625 C 11.539062 -13.820312 10.992188 -13.921875 10.296875 -13.921875 L 6.203125 -13.921875 L 6.203125 -3.8125 Z M 10.71875 -3.8125 "/></g></g></g><g fill="#ff00ff" fill-opacity="1"><g transform="translate(116.062965, 58.984516)"><g><path d="M 15.890625 -5.671875 C 15.890625 -4.609375 15.664062 -3.691406 15.21875 -2.921875 C 14.769531 -2.160156 14.1875 -1.53125 13.46875 -1.03125 C 12.75 -0.539062 11.96875 -0.179688 11.125 0.046875 C 10.28125 0.285156 9.457031 0.40625 8.65625 0.40625 C 7.84375 0.40625 7.019531 0.285156 6.1875 0.046875 C 5.351562 -0.179688 4.578125 -0.539062 3.859375 -1.03125 C 3.148438 -1.53125 2.578125 -2.160156 2.140625 -2.921875 C 1.703125 -3.691406 1.484375 -4.609375 1.484375 -5.671875 L 1.484375 -12.015625 C 1.484375 -13.066406 1.703125 -13.976562 2.140625 -14.75 C 2.578125 -15.519531 3.148438 -16.148438 3.859375 -16.640625 C 4.578125 -17.140625 5.351562 -17.503906 6.1875 -17.734375 C 7.019531 -17.972656 7.84375 -18.09375 8.65625 -18.09375 C 9.457031 -18.09375 10.28125 -17.972656 11.125 -17.734375 C 11.96875 -17.503906 12.75 -17.140625 13.46875 -16.640625 C 14.1875 -16.148438 14.769531 -15.519531 15.21875 -14.75 C 15.664062 -13.976562 15.890625 -13.066406 15.890625 -12.015625 Z M 11.65625 -11.640625 C 11.65625 -12.492188 11.378906 -13.15625 10.828125 -13.625 C 10.273438 -14.101562 9.550781 -14.34375 8.65625 -14.34375 C 7.78125 -14.34375 7.0625 -14.101562 6.5 -13.625 C 5.945312 -13.15625 5.671875 -12.492188 5.671875 -11.640625 L 5.671875 -6.046875 C 5.671875 -5.179688 5.945312 -4.507812 6.5 -4.03125 C 7.0625 -3.5625 7.78125 -3.328125 8.65625 -3.328125 C 9.550781 -3.328125 10.273438 -3.5625 10.828125 -4.03125 C 11.378906 -4.507812 11.65625 -5.179688 11.65625 -6.046875 Z M 11.65625 -11.640625 "/></g></g></g><g fill="#ff00ff" fill-opacity="1"><g transform="translate(133.394442, 58.984516)"><g><path d="M 13.953125 -17.6875 C 14.253906 -17.6875 14.457031 -17.617188 14.5625 -17.484375 C 14.675781 -17.347656 14.734375 -17.15625 14.734375 -16.90625 L 14.734375 -14.671875 C 14.734375 -14.441406 14.675781 -14.253906 14.5625 -14.109375 C 14.457031 -13.960938 14.253906 -13.890625 13.953125 -13.890625 L 9.84375 -13.890625 L 9.84375 -0.78125 C 9.84375 -0.476562 9.773438 -0.269531 9.640625 -0.15625 C 9.503906 -0.0507812 9.3125 0 9.0625 0 L 6.390625 0 C 6.160156 0 5.972656 -0.0507812 5.828125 -0.15625 C 5.679688 -0.269531 5.609375 -0.476562 5.609375 -0.78125 L 5.609375 -13.890625 L 1.484375 -13.890625 C 1.171875 -13.890625 0.960938 -13.960938 0.859375 -14.109375 C 0.753906 -14.253906 0.703125 -14.441406 0.703125 -14.671875 L 0.703125 -16.90625 C 0.703125 -17.15625 0.753906 -17.347656 0.859375 -17.484375 C 0.960938 -17.617188 1.171875 -17.6875 1.484375 -17.6875 Z M 13.953125 -17.6875 "/></g></g></g><g fill="#00ffff" fill-opacity="1"><g transform="translate(39.371191, 60.315935)"><g><path d="M 14.8125 -3.765625 C 15.113281 -3.765625 15.316406 -3.695312 15.421875 -3.5625 C 15.535156 -3.425781 15.59375 -3.234375 15.59375 -2.984375 L 15.59375 -0.78125 C 15.59375 -0.550781 15.535156 -0.363281 15.421875 -0.21875 C 15.316406 -0.0703125 15.113281 0 14.8125 0 L 2.765625 0 C 2.460938 0 2.253906 -0.0703125 2.140625 -0.21875 C 2.035156 -0.363281 1.984375 -0.550781 1.984375 -0.78125 L 1.984375 -16.90625 C 1.984375 -17.15625 2.035156 -17.347656 2.140625 -17.484375 C 2.253906 -17.617188 2.460938 -17.6875 2.765625 -17.6875 L 14.34375 -17.6875 C 14.65625 -17.6875 14.863281 -17.617188 14.96875 -17.484375 C 15.070312 -17.347656 15.125 -17.15625 15.125 -16.90625 L 15.125 -14.671875 C 15.125 -14.441406 15.070312 -14.253906 14.96875 -14.109375 C 14.863281 -13.960938 14.65625 -13.890625 14.34375 -13.890625 L 6.234375 -13.890625 L 6.234375 -10.96875 L 13.4375 -10.96875 C 13.738281 -10.96875 13.941406 -10.898438 14.046875 -10.765625 C 14.160156 -10.628906 14.21875 -10.4375 14.21875 -10.1875 L 14.21875 -8.09375 C 14.21875 -7.851562 14.160156 -7.660156 14.046875 -7.515625 C 13.941406 -7.378906 13.738281 -7.3125 13.4375 -7.3125 L 6.234375 -7.3125 L 6.234375 -3.765625 Z M 14.8125 -3.765625 "/></g></g></g><g fill="#00ffff" fill-opacity="1"><g transform="translate(56.219002, 60.315935)"><g><path d="M 13.953125 -17.6875 C 14.253906 -17.6875 14.457031 -17.617188 14.5625 -17.484375 C 14.675781 -17.347656 14.734375 -17.15625 14.734375 -16.90625 L 14.734375 -14.671875 C 14.734375 -14.441406 14.675781 -14.253906 14.5625 -14.109375 C 14.457031 -13.960938 14.253906 -13.890625 13.953125 -13.890625 L 9.84375 -13.890625 L 9.84375 -0.78125 C 9.84375 -0.476562 9.773438 -0.269531 9.640625 -0.15625 C 9.503906 -0.0507812 9.3125 0 9.0625 0 L 6.390625 0 C 6.160156 0 5.972656 -0.0507812 5.828125 -0.15625 C 5.679688 -0.269531 5.609375 -0.476562 5.609375 -0.78125 L 5.609375 -13.890625 L 1.484375 -13.890625 C 1.171875 -13.890625 0.960938 -13.960938 0.859375 -14.109375 C 0.753906 -14.253906 0.703125 -14.441406 0.703125 -14.671875 L 0.703125 -16.90625 C 0.703125 -17.15625 0.753906 -17.347656 0.859375 -17.484375 C 0.960938 -17.617188 1.171875 -17.6875 1.484375 -17.6875 Z M 13.953125 -17.6875 "/></g></g></g><g fill="#00ffff" fill-opacity="1"><g transform="translate(71.642677, 60.315935)"><g><path d="M 17.203125 -0.75 C 17.273438 -0.59375 17.289062 -0.425781 17.25 -0.25 C 17.21875 -0.0820312 17.050781 0 16.75 0 L 13.921875 0 C 13.628906 0 13.410156 -0.0507812 13.265625 -0.15625 C 13.128906 -0.269531 13.007812 -0.488281 12.90625 -0.8125 L 12.140625 -2.921875 L 5.5625 -2.921875 L 4.8125 -0.8125 C 4.707031 -0.488281 4.585938 -0.269531 4.453125 -0.15625 C 4.316406 -0.0507812 4.097656 0 3.796875 0 L 0.96875 0 C 0.675781 0 0.507812 -0.0820312 0.46875 -0.25 C 0.425781 -0.425781 0.441406 -0.59375 0.515625 -0.75 L 6.484375 -16.84375 C 6.585938 -17.132812 6.722656 -17.347656 6.890625 -17.484375 C 7.066406 -17.617188 7.296875 -17.6875 7.578125 -17.6875 L 10.15625 -17.6875 C 10.457031 -17.6875 10.6875 -17.617188 10.84375 -17.484375 C 11 -17.347656 11.140625 -17.132812 11.265625 -16.84375 Z M 8.875 -12.625 L 6.859375 -6.6875 L 10.890625 -6.6875 Z M 8.875 -12.625 "/></g></g></g><g fill="#00ffff" fill-opacity="1"><g transform="translate(89.242859, 60.315935)"><g/></g></g><g fill="#00ffff" fill-opacity="1"><g transform="translate(96.524765, 60.315935)"><g><path d="M 14.59375 -9.171875 C 14.644531 -9.148438 14.800781 -9.0625 15.0625 -8.90625 C 15.320312 -8.757812 15.601562 -8.53125 15.90625 -8.21875 C 16.207031 -7.914062 16.472656 -7.515625 16.703125 -7.015625 C 16.941406 -6.515625 17.0625 -5.894531 17.0625 -5.15625 C 17.0625 -4.03125 16.785156 -3.082031 16.234375 -2.3125 C 15.691406 -1.539062 14.941406 -0.960938 13.984375 -0.578125 C 13.023438 -0.191406 11.921875 0 10.671875 0 L 2.765625 0 C 2.460938 0 2.253906 -0.0703125 2.140625 -0.21875 C 2.035156 -0.363281 1.984375 -0.550781 1.984375 -0.78125 L 1.984375 -16.9375 C 1.984375 -17.1875 2.035156 -17.375 2.140625 -17.5 C 2.253906 -17.632812 2.460938 -17.703125 2.765625 -17.703125 L 10.296875 -17.703125 C 11.765625 -17.703125 12.953125 -17.472656 13.859375 -17.015625 C 14.773438 -16.566406 15.453125 -15.96875 15.890625 -15.21875 C 16.335938 -14.476562 16.5625 -13.6875 16.5625 -12.84375 C 16.5625 -11.945312 16.410156 -11.234375 16.109375 -10.703125 C 15.816406 -10.179688 15.515625 -9.800781 15.203125 -9.5625 C 14.890625 -9.332031 14.6875 -9.203125 14.59375 -9.171875 Z M 10.71875 -3.8125 C 11.382812 -3.8125 11.894531 -3.953125 12.25 -4.234375 C 12.613281 -4.515625 12.796875 -4.957031 12.796875 -5.5625 C 12.796875 -6.1875 12.582031 -6.613281 12.15625 -6.84375 C 11.738281 -7.082031 11.207031 -7.203125 10.5625 -7.203125 L 9.9375 -7.203125 C 9.632812 -7.203125 9.429688 -7.269531 9.328125 -7.40625 C 9.222656 -7.550781 9.171875 -7.742188 9.171875 -7.984375 L 9.171875 -10.03125 C 9.171875 -10.28125 9.222656 -10.46875 9.328125 -10.59375 C 9.429688 -10.726562 9.632812 -10.796875 9.9375 -10.796875 L 10.296875 -10.796875 C 11.078125 -10.796875 11.644531 -10.9375 12 -11.21875 C 12.351562 -11.5 12.53125 -11.898438 12.53125 -12.421875 C 12.53125 -13.023438 12.332031 -13.425781 11.9375 -13.625 C 11.539062 -13.820312 10.992188 -13.921875 10.296875 -13.921875 L 6.203125 -13.921875 L 6.203125 -3.8125 Z M 10.71875 -3.8125 "/></g></g></g><g fill="#00ffff" fill-opacity="1"><g transform="translate(114.984803, 60.315935)"><g><path d="M 15.890625 -5.671875 C 15.890625 -4.609375 15.664062 -3.691406 15.21875 -2.921875 C 14.769531 -2.160156 14.1875 -1.53125 13.46875 -1.03125 C 12.75 -0.539062 11.96875 -0.179688 11.125 0.046875 C 10.28125 0.285156 9.457031 0.40625 8.65625 0.40625 C 7.84375 0.40625 7.019531 0.285156 6.1875 0.046875 C 5.351562 -0.179688 4.578125 -0.539062 3.859375 -1.03125 C 3.148438 -1.53125 2.578125 -2.160156 2.140625 -2.921875 C 1.703125 -3.691406 1.484375 -4.609375 1.484375 -5.671875 L 1.484375 -12.015625 C 1.484375 -13.066406 1.703125 -13.976562 2.140625 -14.75 C 2.578125 -15.519531 3.148438 -16.148438 3.859375 -16.640625 C 4.578125 -17.140625 5.351562 -17.503906 6.1875 -17.734375 C 7.019531 -17.972656 7.84375 -18.09375 8.65625 -18.09375 C 9.457031 -18.09375 10.28125 -17.972656 11.125 -17.734375 C 11.96875 -17.503906 12.75 -17.140625 13.46875 -16.640625 C 14.1875 -16.148438 14.769531 -15.519531 15.21875 -14.75 C 15.664062 -13.976562 15.890625 -13.066406 15.890625 -12.015625 Z M 11.65625 -11.640625 C 11.65625 -12.492188 11.378906 -13.15625 10.828125 -13.625 C 10.273438 -14.101562 9.550781 -14.34375 8.65625 -14.34375 C 7.78125 -14.34375 7.0625 -14.101562 6.5 -13.625 C 5.945312 -13.15625 5.671875 -12.492188 5.671875 -11.640625 L 5.671875 -6.046875 C 5.671875 -5.179688 5.945312 -4.507812 6.5 -4.03125 C 7.0625 -3.5625 7.78125 -3.328125 8.65625 -3.328125 C 9.550781 -3.328125 10.273438 -3.5625 10.828125 -4.03125 C 11.378906 -4.507812 11.65625 -5.179688 11.65625 -6.046875 Z M 11.65625 -11.640625 "/></g></g></g><g fill="#00ffff" fill-opacity="1"><g transform="translate(132.31628, 60.315935)"><g><path d="M 13.953125 -17.6875 C 14.253906 -17.6875 14.457031 -17.617188 14.5625 -17.484375 C 14.675781 -17.347656 14.734375 -17.15625 14.734375 -16.90625 L 14.734375 -14.671875 C 14.734375 -14.441406 14.675781 -14.253906 14.5625 -14.109375 C 14.457031 -13.960938 14.253906 -13.890625 13.953125 -13.890625 L 9.84375 -13.890625 L 9.84375 -0.78125 C 9.84375 -0.476562 9.773438 -0.269531 9.640625 -0.15625 C 9.503906 -0.0507812 9.3125 0 9.0625 0 L 6.390625 0 C 6.160156 0 5.972656 -0.0507812 5.828125 -0.15625 C 5.679688 -0.269531 5.609375 -0.476562 5.609375 -0.78125 L 5.609375 -13.890625 L 1.484375 -13.890625 C 1.171875 -13.890625 0.960938 -13.960938 0.859375 -14.109375 C 0.753906 -14.253906 0.703125 -14.441406 0.703125 -14.671875 L 0.703125 -16.90625 C 0.703125 -17.15625 0.753906 -17.347656 0.859375 -17.484375 C 0.960938 -17.617188 1.171875 -17.6875 1.484375 -17.6875 Z M 13.953125 -17.6875 "/></g></g></g><g fill="#ffffff" fill-opacity="1"><g transform="translate(39.910272, 59.650225)"><g><path d="M 14.8125 -3.765625 C 15.113281 -3.765625 15.316406 -3.695312 15.421875 -3.5625 C 15.535156 -3.425781 15.59375 -3.234375 15.59375 -2.984375 L 15.59375 -0.78125 C 15.59375 -0.550781 15.535156 -0.363281 15.421875 -0.21875 C 15.316406 -0.0703125 15.113281 0 14.8125 0 L 2.765625 0 C 2.460938 0 2.253906 -0.0703125 2.140625 -0.21875 C 2.035156 -0.363281 1.984375 -0.550781 1.984375 -0.78125 L 1.984375 -16.90625 C 1.984375 -17.15625 2.035156 -17.347656 2.140625 -17.484375 C 2.253906 -17.617188 2.460938 -17.6875 2.765625 -17.6875 L 14.34375 -17.6875 C 14.65625 -17.6875 14.863281 -17.617188 14.96875 -17.484375 C 15.070312 -17.347656 15.125 -17.15625 15.125 -16.90625 L 15.125 -14.671875 C 15.125 -14.441406 15.070312 -14.253906 14.96875 -14.109375 C 14.863281 -13.960938 14.65625 -13.890625 14.34375 -13.890625 L 6.234375 -13.890625 L 6.234375 -10.96875 L 13.4375 -10.96875 C 13.738281 -10.96875 13.941406 -10.898438 14.046875 -10.765625 C 14.160156 -10.628906 14.21875 -10.4375 14.21875 -10.1875 L 14.21875 -8.09375 C 14.21875 -7.851562 14.160156 -7.660156 14.046875 -7.515625 C 13.941406 -7.378906 13.738281 -7.3125 13.4375 -7.3125 L 6.234375 -7.3125 L 6.234375 -3.765625 Z M 14.8125 -3.765625 "/></g></g></g><g fill="#ffffff" fill-opacity="1"><g transform="translate(56.758084, 59.650225)"><g><path d="M 13.953125 -17.6875 C 14.253906 -17.6875 14.457031 -17.617188 14.5625 -17.484375 C 14.675781 -17.347656 14.734375 -17.15625 14.734375 -16.90625 L 14.734375 -14.671875 C 14.734375 -14.441406 14.675781 -14.253906 14.5625 -14.109375 C 14.457031 -13.960938 14.253906 -13.890625 13.953125 -13.890625 L 9.84375 -13.890625 L 9.84375 -0.78125 C 9.84375 -0.476562 9.773438 -0.269531 9.640625 -0.15625 C 9.503906 -0.0507812 9.3125 0 9.0625 0 L 6.390625 0 C 6.160156 0 5.972656 -0.0507812 5.828125 -0.15625 C 5.679688 -0.269531 5.609375 -0.476562 5.609375 -0.78125 L 5.609375 -13.890625 L 1.484375 -13.890625 C 1.171875 -13.890625 0.960938 -13.960938 0.859375 -14.109375 C 0.753906 -14.253906 0.703125 -14.441406 0.703125 -14.671875 L 0.703125 -16.90625 C 0.703125 -17.15625 0.753906 -17.347656 0.859375 -17.484375 C 0.960938 -17.617188 1.171875 -17.6875 1.484375 -17.6875 Z M 13.953125 -17.6875 "/></g></g></g><g fill="#ffffff" fill-opacity="1"><g transform="translate(72.181758, 59.650225)"><g><path d="M 17.203125 -0.75 C 17.273438 -0.59375 17.289062 -0.425781 17.25 -0.25 C 17.21875 -0.0820312 17.050781 0 16.75 0 L 13.921875 0 C 13.628906 0 13.410156 -0.0507812 13.265625 -0.15625 C 13.128906 -0.269531 13.007812 -0.488281 12.90625 -0.8125 L 12.140625 -2.921875 L 5.5625 -2.921875 L 4.8125 -0.8125 C 4.707031 -0.488281 4.585938 -0.269531 4.453125 -0.15625 C 4.316406 -0.0507812 4.097656 0 3.796875 0 L 0.96875 0 C 0.675781 0 0.507812 -0.0820312 0.46875 -0.25 C 0.425781 -0.425781 0.441406 -0.59375 0.515625 -0.75 L 6.484375 -16.84375 C 6.585938 -17.132812 6.722656 -17.347656 6.890625 -17.484375 C 7.066406 -17.617188 7.296875 -17.6875 7.578125 -17.6875 L 10.15625 -17.6875 C 10.457031 -17.6875 10.6875 -17.617188 10.84375 -17.484375 C 11 -17.347656 11.140625 -17.132812 11.265625 -16.84375 Z M 8.875 -12.625 L 6.859375 -6.6875 L 10.890625 -6.6875 Z M 8.875 -12.625 "/></g></g></g><g fill="#ffffff" fill-opacity="1"><g transform="translate(89.78194, 59.650225)"><g/></g></g><g fill="#ffffff" fill-opacity="1"><g transform="translate(97.063846, 59.650225)"><g><path d="M 14.59375 -9.171875 C 14.644531 -9.148438 14.800781 -9.0625 15.0625 -8.90625 C 15.320312 -8.757812 15.601562 -8.53125 15.90625 -8.21875 C 16.207031 -7.914062 16.472656 -7.515625 16.703125 -7.015625 C 16.941406 -6.515625 17.0625 -5.894531 17.0625 -5.15625 C 17.0625 -4.03125 16.785156 -3.082031 16.234375 -2.3125 C 15.691406 -1.539062 14.941406 -0.960938 13.984375 -0.578125 C 13.023438 -0.191406 11.921875 0 10.671875 0 L 2.765625 0 C 2.460938 0 2.253906 -0.0703125 2.140625 -0.21875 C 2.035156 -0.363281 1.984375 -0.550781 1.984375 -0.78125 L 1.984375 -16.9375 C 1.984375 -17.1875 2.035156 -17.375 2.140625 -17.5 C 2.253906 -17.632812 2.460938 -17.703125 2.765625 -17.703125 L 10.296875 -17.703125 C 11.765625 -17.703125 12.953125 -17.472656 13.859375 -17.015625 C 14.773438 -16.566406 15.453125 -15.96875 15.890625 -15.21875 C 16.335938 -14.476562 16.5625 -13.6875 16.5625 -12.84375 C 16.5625 -11.945312 16.410156 -11.234375 16.109375 -10.703125 C 15.816406 -10.179688 15.515625 -9.800781 15.203125 -9.5625 C 14.890625 -9.332031 14.6875 -9.203125 14.59375 -9.171875 Z M 10.71875 -3.8125 C 11.382812 -3.8125 11.894531 -3.953125 12.25 -4.234375 C 12.613281 -4.515625 12.796875 -4.957031 12.796875 -5.5625 C 12.796875 -6.1875 12.582031 -6.613281 12.15625 -6.84375 C 11.738281 -7.082031 11.207031 -7.203125 10.5625 -7.203125 L 9.9375 -7.203125 C 9.632812 -7.203125 9.429688 -7.269531 9.328125 -7.40625 C 9.222656 -7.550781 9.171875 -7.742188 9.171875 -7.984375 L 9.171875 -10.03125 C 9.171875 -10.28125 9.222656 -10.46875 9.328125 -10.59375 C 9.429688 -10.726562 9.632812 -10.796875 9.9375 -10.796875 L 10.296875 -10.796875 C 11.078125 -10.796875 11.644531 -10.9375 12 -11.21875 C 12.351562 -11.5 12.53125 -11.898438 12.53125 -12.421875 C 12.53125 -13.023438 12.332031 -13.425781 11.9375 -13.625 C 11.539062 -13.820312 10.992188 -13.921875 10.296875 -13.921875 L 6.203125 -13.921875 L 6.203125 -3.8125 Z M 10.71875 -3.8125 "/></g></g></g><g fill="#ffffff" fill-opacity="1"><g transform="translate(115.523884, 59.650225)"><g><path d="M 15.890625 -5.671875 C 15.890625 -4.609375 15.664062 -3.691406 15.21875 -2.921875 C 14.769531 -2.160156 14.1875 -1.53125 13.46875 -1.03125 C 12.75 -0.539062 11.96875 -0.179688 11.125 0.046875 C 10.28125 0.285156 9.457031 0.40625 8.65625 0.40625 C 7.84375 0.40625 7.019531 0.285156 6.1875 0.046875 C 5.351562 -0.179688 4.578125 -0.539062 3.859375 -1.03125 C 3.148438 -1.53125 2.578125 -2.160156 2.140625 -2.921875 C 1.703125 -3.691406 1.484375 -4.609375 1.484375 -5.671875 L 1.484375 -12.015625 C 1.484375 -13.066406 1.703125 -13.976562 2.140625 -14.75 C 2.578125 -15.519531 3.148438 -16.148438 3.859375 -16.640625 C 4.578125 -17.140625 5.351562 -17.503906 6.1875 -17.734375 C 7.019531 -17.972656 7.84375 -18.09375 8.65625 -18.09375 C 9.457031 -18.09375 10.28125 -17.972656 11.125 -17.734375 C 11.96875 -17.503906 12.75 -17.140625 13.46875 -16.640625 C 14.1875 -16.148438 14.769531 -15.519531 15.21875 -14.75 C 15.664062 -13.976562 15.890625 -13.066406 15.890625 -12.015625 Z M 11.65625 -11.640625 C 11.65625 -12.492188 11.378906 -13.15625 10.828125 -13.625 C 10.273438 -14.101562 9.550781 -14.34375 8.65625 -14.34375 C 7.78125 -14.34375 7.0625 -14.101562 6.5 -13.625 C 5.945312 -13.15625 5.671875 -12.492188 5.671875 -11.640625 L 5.671875 -6.046875 C 5.671875 -5.179688 5.945312 -4.507812 6.5 -4.03125 C 7.0625 -3.5625 7.78125 -3.328125 8.65625 -3.328125 C 9.550781 -3.328125 10.273438 -3.5625 10.828125 -4.03125 C 11.378906 -4.507812 11.65625 -5.179688 11.65625 -6.046875 Z M 11.65625 -11.640625 "/></g></g></g><g fill="#ffffff" fill-opacity="1"><g transform="translate(132.855361, 59.650225)"><g><path d="M 13.953125 -17.6875 C 14.253906 -17.6875 14.457031 -17.617188 14.5625 -17.484375 C 14.675781 -17.347656 14.734375 -17.15625 14.734375 -16.90625 L 14.734375 -14.671875 C 14.734375 -14.441406 14.675781 -14.253906 14.5625 -14.109375 C 14.457031 -13.960938 14.253906 -13.890625 13.953125 -13.890625 L 9.84375 -13.890625 L 9.84375 -0.78125 C 9.84375 -0.476562 9.773438 -0.269531 9.640625 -0.15625 C 9.503906 -0.0507812 9.3125 0 9.0625 0 L 6.390625 0 C 6.160156 0 5.972656 -0.0507812 5.828125 -0.15625 C 5.679688 -0.269531 5.609375 -0.476562 5.609375 -0.78125 L 5.609375 -13.890625 L 1.484375 -13.890625 C 1.171875 -13.890625 0.960938 -13.960938 0.859375 -14.109375 C 0.753906 -14.253906 0.703125 -14.441406 0.703125 -14.671875 L 0.703125 -16.90625 C 0.703125 -17.15625 0.753906 -17.347656 0.859375 -17.484375 C 0.960938 -17.617188 1.171875 -17.6875 1.484375 -17.6875 Z M 13.953125 -17.6875 "/></g></g></g><g fill="#ff00ff" fill-opacity="1"><g transform="translate(61.699988, 35.433489)"><g><path d="M 8.796875 -8.75 C 9.210938 -8.632812 9.65625 -8.488281 10.125 -8.3125 C 10.601562 -8.132812 11.046875 -7.894531 11.453125 -7.59375 C 11.867188 -7.300781 12.207031 -6.898438 12.46875 -6.390625 C 12.738281 -5.890625 12.875 -5.25 12.875 -4.46875 C 12.875 -3.382812 12.609375 -2.484375 12.078125 -1.765625 C 11.554688 -1.054688 10.835938 -0.523438 9.921875 -0.171875 C 9.003906 0.171875 7.957031 0.34375 6.78125 0.34375 C 6.0625 0.34375 5.335938 0.238281 4.609375 0.03125 C 3.890625 -0.175781 3.226562 -0.476562 2.625 -0.875 C 2.019531 -1.28125 1.535156 -1.789062 1.171875 -2.40625 C 0.804688 -3.019531 0.625 -3.722656 0.625 -4.515625 C 0.625 -4.773438 0.664062 -4.945312 0.75 -5.03125 C 0.84375 -5.113281 1.019531 -5.15625 1.28125 -5.15625 L 3.5 -5.15625 C 3.757812 -5.15625 3.957031 -5.117188 4.09375 -5.046875 C 4.238281 -4.984375 4.316406 -4.804688 4.328125 -4.515625 C 4.347656 -4.359375 4.382812 -4.203125 4.4375 -4.046875 C 4.5 -3.898438 4.609375 -3.742188 4.765625 -3.578125 C 4.992188 -3.296875 5.316406 -3.097656 5.734375 -2.984375 C 6.160156 -2.867188 6.585938 -2.8125 7.015625 -2.8125 C 7.640625 -2.8125 8.171875 -2.910156 8.609375 -3.109375 C 9.046875 -3.316406 9.265625 -3.738281 9.265625 -4.375 C 9.265625 -4.800781 9.0625 -5.113281 8.65625 -5.3125 C 8.257812 -5.507812 7.757812 -5.671875 7.15625 -5.796875 C 6.550781 -5.929688 5.921875 -6.097656 5.265625 -6.296875 C 4.503906 -6.546875 3.78125 -6.835938 3.09375 -7.171875 C 2.414062 -7.503906 1.867188 -7.960938 1.453125 -8.546875 C 1.035156 -9.128906 0.828125 -9.898438 0.828125 -10.859375 C 0.828125 -11.859375 1.085938 -12.6875 1.609375 -13.34375 C 2.140625 -14.007812 2.832031 -14.515625 3.6875 -14.859375 C 4.539062 -15.203125 5.441406 -15.390625 6.390625 -15.421875 C 7.128906 -15.421875 7.859375 -15.335938 8.578125 -15.171875 C 9.296875 -15.003906 9.945312 -14.738281 10.53125 -14.375 C 11.125 -14.019531 11.597656 -13.570312 11.953125 -13.03125 C 12.316406 -12.488281 12.5 -11.835938 12.5 -11.078125 C 12.5 -10.796875 12.453125 -10.613281 12.359375 -10.53125 C 12.265625 -10.457031 12.085938 -10.421875 11.828125 -10.421875 L 9.578125 -10.421875 C 9.367188 -10.421875 9.226562 -10.484375 9.15625 -10.609375 C 9.082031 -10.742188 9.019531 -10.890625 8.96875 -11.046875 C 8.914062 -11.171875 8.851562 -11.28125 8.78125 -11.375 C 8.71875 -11.476562 8.617188 -11.597656 8.484375 -11.734375 C 8.265625 -11.953125 7.972656 -12.109375 7.609375 -12.203125 C 7.242188 -12.304688 6.882812 -12.359375 6.53125 -12.359375 C 6.289062 -12.359375 6.007812 -12.316406 5.6875 -12.234375 C 5.363281 -12.160156 5.085938 -12.023438 4.859375 -11.828125 C 4.628906 -11.640625 4.515625 -11.375 4.515625 -11.03125 C 4.515625 -10.675781 4.6875 -10.375 5.03125 -10.125 C 5.382812 -9.882812 5.8125 -9.675781 6.3125 -9.5 C 6.8125 -9.320312 7.289062 -9.175781 7.75 -9.0625 C 8.21875 -8.945312 8.566406 -8.84375 8.796875 -8.75 Z M 8.796875 -8.75 "/></g></g></g><g fill="#ff00ff" fill-opacity="1"><g transform="translate(75.558739, 35.433489)"><g><path d="M 7.515625 -15.078125 C 9.484375 -15.078125 10.976562 -14.585938 12 -13.609375 C 13.019531 -12.640625 13.53125 -11.359375 13.53125 -9.765625 C 13.53125 -8.171875 13.007812 -6.890625 11.96875 -5.921875 C 10.9375 -4.953125 9.445312 -4.46875 7.5 -4.46875 L 5.296875 -4.46875 L 5.296875 -0.671875 C 5.296875 -0.410156 5.238281 -0.234375 5.125 -0.140625 C 5.007812 -0.046875 4.84375 0 4.625 0 L 2.359375 0 C 2.160156 0 2 -0.046875 1.875 -0.140625 C 1.757812 -0.234375 1.703125 -0.410156 1.703125 -0.671875 L 1.703125 -14.421875 C 1.703125 -14.628906 1.742188 -14.789062 1.828125 -14.90625 C 1.921875 -15.019531 2.097656 -15.078125 2.359375 -15.078125 Z M 7.5 -7.5625 C 8.394531 -7.5625 9.046875 -7.773438 9.453125 -8.203125 C 9.859375 -8.628906 10.0625 -9.128906 10.0625 -9.703125 C 10.0625 -10.296875 9.859375 -10.800781 9.453125 -11.21875 C 9.046875 -11.632812 8.394531 -11.84375 7.5 -11.84375 L 5.296875 -11.84375 L 5.296875 -7.5625 Z M 7.5 -7.5625 "/></g></g></g><g fill="#ff00ff" fill-opacity="1"><g transform="translate(89.944363, 35.433489)"><g><path d="M 13.546875 -4.84375 C 13.546875 -3.9375 13.351562 -3.15625 12.96875 -2.5 C 12.59375 -1.84375 12.097656 -1.300781 11.484375 -0.875 C 10.867188 -0.457031 10.203125 -0.148438 9.484375 0.046875 C 8.765625 0.242188 8.0625 0.34375 7.375 0.34375 C 6.6875 0.34375 5.988281 0.242188 5.28125 0.046875 C 4.570312 -0.148438 3.910156 -0.457031 3.296875 -0.875 C 2.691406 -1.300781 2.203125 -1.84375 1.828125 -2.5 C 1.453125 -3.15625 1.265625 -3.9375 1.265625 -4.84375 L 1.265625 -10.25 C 1.265625 -11.144531 1.453125 -11.921875 1.828125 -12.578125 C 2.203125 -13.234375 2.691406 -13.769531 3.296875 -14.1875 C 3.910156 -14.613281 4.570312 -14.925781 5.28125 -15.125 C 5.988281 -15.320312 6.6875 -15.421875 7.375 -15.421875 C 8.0625 -15.421875 8.765625 -15.320312 9.484375 -15.125 C 10.203125 -14.925781 10.867188 -14.613281 11.484375 -14.1875 C 12.097656 -13.769531 12.59375 -13.234375 12.96875 -12.578125 C 13.351562 -11.921875 13.546875 -11.144531 13.546875 -10.25 Z M 9.953125 -9.921875 C 9.953125 -10.660156 9.710938 -11.226562 9.234375 -11.625 C 8.765625 -12.03125 8.144531 -12.234375 7.375 -12.234375 C 6.625 -12.234375 6.015625 -12.03125 5.546875 -11.625 C 5.078125 -11.226562 4.84375 -10.660156 4.84375 -9.921875 L 4.84375 -5.15625 C 4.84375 -4.425781 5.078125 -3.859375 5.546875 -3.453125 C 6.015625 -3.046875 6.625 -2.84375 7.375 -2.84375 C 8.144531 -2.84375 8.765625 -3.046875 9.234375 -3.453125 C 9.710938 -3.859375 9.953125 -4.425781 9.953125 -5.15625 Z M 9.953125 -9.921875 "/></g></g></g><g fill="#ff00ff" fill-opacity="1"><g transform="translate(104.719407, 35.433489)"><g><path d="M 11.890625 -15.078125 C 12.148438 -15.078125 12.328125 -15.019531 12.421875 -14.90625 C 12.515625 -14.789062 12.5625 -14.628906 12.5625 -14.421875 L 12.5625 -12.515625 C 12.5625 -12.316406 12.515625 -12.15625 12.421875 -12.03125 C 12.328125 -11.90625 12.148438 -11.84375 11.890625 -11.84375 L 8.390625 -11.84375 L 8.390625 -0.671875 C 8.390625 -0.410156 8.332031 -0.234375 8.21875 -0.140625 C 8.101562 -0.046875 7.9375 0 7.71875 0 L 5.453125 0 C 5.253906 0 5.09375 -0.046875 4.96875 -0.140625 C 4.851562 -0.234375 4.796875 -0.410156 4.796875 -0.671875 L 4.796875 -11.84375 L 1.265625 -11.84375 C 1.003906 -11.84375 0.828125 -11.90625 0.734375 -12.03125 C 0.640625 -12.15625 0.59375 -12.316406 0.59375 -12.515625 L 0.59375 -14.421875 C 0.59375 -14.628906 0.640625 -14.789062 0.734375 -14.90625 C 0.828125 -15.019531 1.003906 -15.078125 1.265625 -15.078125 Z M 11.890625 -15.078125 "/></g></g></g><g fill="#00ffff" fill-opacity="1"><g transform="translate(60.780481, 36.568985)"><g><path d="M 8.796875 -8.75 C 9.210938 -8.632812 9.65625 -8.488281 10.125 -8.3125 C 10.601562 -8.132812 11.046875 -7.894531 11.453125 -7.59375 C 11.867188 -7.300781 12.207031 -6.898438 12.46875 -6.390625 C 12.738281 -5.890625 12.875 -5.25 12.875 -4.46875 C 12.875 -3.382812 12.609375 -2.484375 12.078125 -1.765625 C 11.554688 -1.054688 10.835938 -0.523438 9.921875 -0.171875 C 9.003906 0.171875 7.957031 0.34375 6.78125 0.34375 C 6.0625 0.34375 5.335938 0.238281 4.609375 0.03125 C 3.890625 -0.175781 3.226562 -0.476562 2.625 -0.875 C 2.019531 -1.28125 1.535156 -1.789062 1.171875 -2.40625 C 0.804688 -3.019531 0.625 -3.722656 0.625 -4.515625 C 0.625 -4.773438 0.664062 -4.945312 0.75 -5.03125 C 0.84375 -5.113281 1.019531 -5.15625 1.28125 -5.15625 L 3.5 -5.15625 C 3.757812 -5.15625 3.957031 -5.117188 4.09375 -5.046875 C 4.238281 -4.984375 4.316406 -4.804688 4.328125 -4.515625 C 4.347656 -4.359375 4.382812 -4.203125 4.4375 -4.046875 C 4.5 -3.898438 4.609375 -3.742188 4.765625 -3.578125 C 4.992188 -3.296875 5.316406 -3.097656 5.734375 -2.984375 C 6.160156 -2.867188 6.585938 -2.8125 7.015625 -2.8125 C 7.640625 -2.8125 8.171875 -2.910156 8.609375 -3.109375 C 9.046875 -3.316406 9.265625 -3.738281 9.265625 -4.375 C 9.265625 -4.800781 9.0625 -5.113281 8.65625 -5.3125 C 8.257812 -5.507812 7.757812 -5.671875 7.15625 -5.796875 C 6.550781 -5.929688 5.921875 -6.097656 5.265625 -6.296875 C 4.503906 -6.546875 3.78125 -6.835938 3.09375 -7.171875 C 2.414062 -7.503906 1.867188 -7.960938 1.453125 -8.546875 C 1.035156 -9.128906 0.828125 -9.898438 0.828125 -10.859375 C 0.828125 -11.859375 1.085938 -12.6875 1.609375 -13.34375 C 2.140625 -14.007812 2.832031 -14.515625 3.6875 -14.859375 C 4.539062 -15.203125 5.441406 -15.390625 6.390625 -15.421875 C 7.128906 -15.421875 7.859375 -15.335938 8.578125 -15.171875 C 9.296875 -15.003906 9.945312 -14.738281 10.53125 -14.375 C 11.125 -14.019531 11.597656 -13.570312 11.953125 -13.03125 C 12.316406 -12.488281 12.5 -11.835938 12.5 -11.078125 C 12.5 -10.796875 12.453125 -10.613281 12.359375 -10.53125 C 12.265625 -10.457031 12.085938 -10.421875 11.828125 -10.421875 L 9.578125 -10.421875 C 9.367188 -10.421875 9.226562 -10.484375 9.15625 -10.609375 C 9.082031 -10.742188 9.019531 -10.890625 8.96875 -11.046875 C 8.914062 -11.171875 8.851562 -11.28125 8.78125 -11.375 C 8.71875 -11.476562 8.617188 -11.597656 8.484375 -11.734375 C 8.265625 -11.953125 7.972656 -12.109375 7.609375 -12.203125 C 7.242188 -12.304688 6.882812 -12.359375 6.53125 -12.359375 C 6.289062 -12.359375 6.007812 -12.316406 5.6875 -12.234375 C 5.363281 -12.160156 5.085938 -12.023438 4.859375 -11.828125 C 4.628906 -11.640625 4.515625 -11.375 4.515625 -11.03125 C 4.515625 -10.675781 4.6875 -10.375 5.03125 -10.125 C 5.382812 -9.882812 5.8125 -9.675781 6.3125 -9.5 C 6.8125 -9.320312 7.289062 -9.175781 7.75 -9.0625 C 8.21875 -8.945312 8.566406 -8.84375 8.796875 -8.75 Z M 8.796875 -8.75 "/></g></g></g><g fill="#00ffff" fill-opacity="1"><g transform="translate(74.639232, 36.568985)"><g><path d="M 7.515625 -15.078125 C 9.484375 -15.078125 10.976562 -14.585938 12 -13.609375 C 13.019531 -12.640625 13.53125 -11.359375 13.53125 -9.765625 C 13.53125 -8.171875 13.007812 -6.890625 11.96875 -5.921875 C 10.9375 -4.953125 9.445312 -4.46875 7.5 -4.46875 L 5.296875 -4.46875 L 5.296875 -0.671875 C 5.296875 -0.410156 5.238281 -0.234375 5.125 -0.140625 C 5.007812 -0.046875 4.84375 0 4.625 0 L 2.359375 0 C 2.160156 0 2 -0.046875 1.875 -0.140625 C 1.757812 -0.234375 1.703125 -0.410156 1.703125 -0.671875 L 1.703125 -14.421875 C 1.703125 -14.628906 1.742188 -14.789062 1.828125 -14.90625 C 1.921875 -15.019531 2.097656 -15.078125 2.359375 -15.078125 Z M 7.5 -7.5625 C 8.394531 -7.5625 9.046875 -7.773438 9.453125 -8.203125 C 9.859375 -8.628906 10.0625 -9.128906 10.0625 -9.703125 C 10.0625 -10.296875 9.859375 -10.800781 9.453125 -11.21875 C 9.046875 -11.632812 8.394531 -11.84375 7.5 -11.84375 L 5.296875 -11.84375 L 5.296875 -7.5625 Z M 7.5 -7.5625 "/></g></g></g><g fill="#00ffff" fill-opacity="1"><g transform="translate(89.024856, 36.568985)"><g><path d="M 13.546875 -4.84375 C 13.546875 -3.9375 13.351562 -3.15625 12.96875 -2.5 C 12.59375 -1.84375 12.097656 -1.300781 11.484375 -0.875 C 10.867188 -0.457031 10.203125 -0.148438 9.484375 0.046875 C 8.765625 0.242188 8.0625 0.34375 7.375 0.34375 C 6.6875 0.34375 5.988281 0.242188 5.28125 0.046875 C 4.570312 -0.148438 3.910156 -0.457031 3.296875 -0.875 C 2.691406 -1.300781 2.203125 -1.84375 1.828125 -2.5 C 1.453125 -3.15625 1.265625 -3.9375 1.265625 -4.84375 L 1.265625 -10.25 C 1.265625 -11.144531 1.453125 -11.921875 1.828125 -12.578125 C 2.203125 -13.234375 2.691406 -13.769531 3.296875 -14.1875 C 3.910156 -14.613281 4.570312 -14.925781 5.28125 -15.125 C 5.988281 -15.320312 6.6875 -15.421875 7.375 -15.421875 C 8.0625 -15.421875 8.765625 -15.320312 9.484375 -15.125 C 10.203125 -14.925781 10.867188 -14.613281 11.484375 -14.1875 C 12.097656 -13.769531 12.59375 -13.234375 12.96875 -12.578125 C 13.351562 -11.921875 13.546875 -11.144531 13.546875 -10.25 Z M 9.953125 -9.921875 C 9.953125 -10.660156 9.710938 -11.226562 9.234375 -11.625 C 8.765625 -12.03125 8.144531 -12.234375 7.375 -12.234375 C 6.625 -12.234375 6.015625 -12.03125 5.546875 -11.625 C 5.078125 -11.226562 4.84375 -10.660156 4.84375 -9.921875 L 4.84375 -5.15625 C 4.84375 -4.425781 5.078125 -3.859375 5.546875 -3.453125 C 6.015625 -3.046875 6.625 -2.84375 7.375 -2.84375 C 8.144531 -2.84375 8.765625 -3.046875 9.234375 -3.453125 C 9.710938 -3.859375 9.953125 -4.425781 9.953125 -5.15625 Z M 9.953125 -9.921875 "/></g></g></g><g fill="#00ffff" fill-opacity="1"><g transform="translate(103.7999, 36.568985)"><g><path d="M 11.890625 -15.078125 C 12.148438 -15.078125 12.328125 -15.019531 12.421875 -14.90625 C 12.515625 -14.789062 12.5625 -14.628906 12.5625 -14.421875 L 12.5625 -12.515625 C 12.5625 -12.316406 12.515625 -12.15625 12.421875 -12.03125 C 12.328125 -11.90625 12.148438 -11.84375 11.890625 -11.84375 L 8.390625 -11.84375 L 8.390625 -0.671875 C 8.390625 -0.410156 8.332031 -0.234375 8.21875 -0.140625 C 8.101562 -0.046875 7.9375 0 7.71875 0 L 5.453125 0 C 5.253906 0 5.09375 -0.046875 4.96875 -0.140625 C 4.851562 -0.234375 4.796875 -0.410156 4.796875 -0.671875 L 4.796875 -11.84375 L 1.265625 -11.84375 C 1.003906 -11.84375 0.828125 -11.90625 0.734375 -12.03125 C 0.640625 -12.15625 0.59375 -12.316406 0.59375 -12.515625 L 0.59375 -14.421875 C 0.59375 -14.628906 0.640625 -14.789062 0.734375 -14.90625 C 0.828125 -15.019531 1.003906 -15.078125 1.265625 -15.078125 Z M 11.890625 -15.078125 "/></g></g></g><g fill="#ffffff" fill-opacity="1"><g transform="translate(61.240234, 36.001237)"><g><path d="M 8.796875 -8.75 C 9.210938 -8.632812 9.65625 -8.488281 10.125 -8.3125 C 10.601562 -8.132812 11.046875 -7.894531 11.453125 -7.59375 C 11.867188 -7.300781 12.207031 -6.898438 12.46875 -6.390625 C 12.738281 -5.890625 12.875 -5.25 12.875 -4.46875 C 12.875 -3.382812 12.609375 -2.484375 12.078125 -1.765625 C 11.554688 -1.054688 10.835938 -0.523438 9.921875 -0.171875 C 9.003906 0.171875 7.957031 0.34375 6.78125 0.34375 C 6.0625 0.34375 5.335938 0.238281 4.609375 0.03125 C 3.890625 -0.175781 3.226562 -0.476562 2.625 -0.875 C 2.019531 -1.28125 1.535156 -1.789062 1.171875 -2.40625 C 0.804688 -3.019531 0.625 -3.722656 0.625 -4.515625 C 0.625 -4.773438 0.664062 -4.945312 0.75 -5.03125 C 0.84375 -5.113281 1.019531 -5.15625 1.28125 -5.15625 L 3.5 -5.15625 C 3.757812 -5.15625 3.957031 -5.117188 4.09375 -5.046875 C 4.238281 -4.984375 4.316406 -4.804688 4.328125 -4.515625 C 4.347656 -4.359375 4.382812 -4.203125 4.4375 -4.046875 C 4.5 -3.898438 4.609375 -3.742188 4.765625 -3.578125 C 4.992188 -3.296875 5.316406 -3.097656 5.734375 -2.984375 C 6.160156 -2.867188 6.585938 -2.8125 7.015625 -2.8125 C 7.640625 -2.8125 8.171875 -2.910156 8.609375 -3.109375 C 9.046875 -3.316406 9.265625 -3.738281 9.265625 -4.375 C 9.265625 -4.800781 9.0625 -5.113281 8.65625 -5.3125 C 8.257812 -5.507812 7.757812 -5.671875 7.15625 -5.796875 C 6.550781 -5.929688 5.921875 -6.097656 5.265625 -6.296875 C 4.503906 -6.546875 3.78125 -6.835938 3.09375 -7.171875 C 2.414062 -7.503906 1.867188 -7.960938 1.453125 -8.546875 C 1.035156 -9.128906 0.828125 -9.898438 0.828125 -10.859375 C 0.828125 -11.859375 1.085938 -12.6875 1.609375 -13.34375 C 2.140625 -14.007812 2.832031 -14.515625 3.6875 -14.859375 C 4.539062 -15.203125 5.441406 -15.390625 6.390625 -15.421875 C 7.128906 -15.421875 7.859375 -15.335938 8.578125 -15.171875 C 9.296875 -15.003906 9.945312 -14.738281 10.53125 -14.375 C 11.125 -14.019531 11.597656 -13.570312 11.953125 -13.03125 C 12.316406 -12.488281 12.5 -11.835938 12.5 -11.078125 C 12.5 -10.796875 12.453125 -10.613281 12.359375 -10.53125 C 12.265625 -10.457031 12.085938 -10.421875 11.828125 -10.421875 L 9.578125 -10.421875 C 9.367188 -10.421875 9.226562 -10.484375 9.15625 -10.609375 C 9.082031 -10.742188 9.019531 -10.890625 8.96875 -11.046875 C 8.914062 -11.171875 8.851562 -11.28125 8.78125 -11.375 C 8.71875 -11.476562 8.617188 -11.597656 8.484375 -11.734375 C 8.265625 -11.953125 7.972656 -12.109375 7.609375 -12.203125 C 7.242188 -12.304688 6.882812 -12.359375 6.53125 -12.359375 C 6.289062 -12.359375 6.007812 -12.316406 5.6875 -12.234375 C 5.363281 -12.160156 5.085938 -12.023438 4.859375 -11.828125 C 4.628906 -11.640625 4.515625 -11.375 4.515625 -11.03125 C 4.515625 -10.675781 4.6875 -10.375 5.03125 -10.125 C 5.382812 -9.882812 5.8125 -9.675781 6.3125 -9.5 C 6.8125 -9.320312 7.289062 -9.175781 7.75 -9.0625 C 8.21875 -8.945312 8.566406 -8.84375 8.796875 -8.75 Z M 8.796875 -8.75 "/></g></g></g><g fill="#ffffff" fill-opacity="1"><g transform="translate(75.098985, 36.001237)"><g><path d="M 7.515625 -15.078125 C 9.484375 -15.078125 10.976562 -14.585938 12 -13.609375 C 13.019531 -12.640625 13.53125 -11.359375 13.53125 -9.765625 C 13.53125 -8.171875 13.007812 -6.890625 11.96875 -5.921875 C 10.9375 -4.953125 9.445312 -4.46875 7.5 -4.46875 L 5.296875 -4.46875 L 5.296875 -0.671875 C 5.296875 -0.410156 5.238281 -0.234375 5.125 -0.140625 C 5.007812 -0.046875 4.84375 0 4.625 0 L 2.359375 0 C 2.160156 0 2 -0.046875 1.875 -0.140625 C 1.757812 -0.234375 1.703125 -0.410156 1.703125 -0.671875 L 1.703125 -14.421875 C 1.703125 -14.628906 1.742188 -14.789062 1.828125 -14.90625 C 1.921875 -15.019531 2.097656 -15.078125 2.359375 -15.078125 Z M 7.5 -7.5625 C 8.394531 -7.5625 9.046875 -7.773438 9.453125 -8.203125 C 9.859375 -8.628906 10.0625 -9.128906 10.0625 -9.703125 C 10.0625 -10.296875 9.859375 -10.800781 9.453125 -11.21875 C 9.046875 -11.632812 8.394531 -11.84375 7.5 -11.84375 L 5.296875 -11.84375 L 5.296875 -7.5625 Z M 7.5 -7.5625 "/></g></g></g><g fill="#ffffff" fill-opacity="1"><g transform="translate(89.48461, 36.001237)"><g><path d="M 13.546875 -4.84375 C 13.546875 -3.9375 13.351562 -3.15625 12.96875 -2.5 C 12.59375 -1.84375 12.097656 -1.300781 11.484375 -0.875 C 10.867188 -0.457031 10.203125 -0.148438 9.484375 0.046875 C 8.765625 0.242188 8.0625 0.34375 7.375 0.34375 C 6.6875 0.34375 5.988281 0.242188 5.28125 0.046875 C 4.570312 -0.148438 3.910156 -0.457031 3.296875 -0.875 C 2.691406 -1.300781 2.203125 -1.84375 1.828125 -2.5 C 1.453125 -3.15625 1.265625 -3.9375 1.265625 -4.84375 L 1.265625 -10.25 C 1.265625 -11.144531 1.453125 -11.921875 1.828125 -12.578125 C 2.203125 -13.234375 2.691406 -13.769531 3.296875 -14.1875 C 3.910156 -14.613281 4.570312 -14.925781 5.28125 -15.125 C 5.988281 -15.320312 6.6875 -15.421875 7.375 -15.421875 C 8.0625 -15.421875 8.765625 -15.320312 9.484375 -15.125 C 10.203125 -14.925781 10.867188 -14.613281 11.484375 -14.1875 C 12.097656 -13.769531 12.59375 -13.234375 12.96875 -12.578125 C 13.351562 -11.921875 13.546875 -11.144531 13.546875 -10.25 Z M 9.953125 -9.921875 C 9.953125 -10.660156 9.710938 -11.226562 9.234375 -11.625 C 8.765625 -12.03125 8.144531 -12.234375 7.375 -12.234375 C 6.625 -12.234375 6.015625 -12.03125 5.546875 -11.625 C 5.078125 -11.226562 4.84375 -10.660156 4.84375 -9.921875 L 4.84375 -5.15625 C 4.84375 -4.425781 5.078125 -3.859375 5.546875 -3.453125 C 6.015625 -3.046875 6.625 -2.84375 7.375 -2.84375 C 8.144531 -2.84375 8.765625 -3.046875 9.234375 -3.453125 C 9.710938 -3.859375 9.953125 -4.425781 9.953125 -5.15625 Z M 9.953125 -9.921875 "/></g></g></g><g fill="#ffffff" fill-opacity="1"><g transform="translate(104.259653, 36.001237)"><g><path d="M 11.890625 -15.078125 C 12.148438 -15.078125 12.328125 -15.019531 12.421875 -14.90625 C 12.515625 -14.789062 12.5625 -14.628906 12.5625 -14.421875 L 12.5625 -12.515625 C 12.5625 -12.316406 12.515625 -12.15625 12.421875 -12.03125 C 12.328125 -11.90625 12.148438 -11.84375 11.890625 -11.84375 L 8.390625 -11.84375 L 8.390625 -0.671875 C 8.390625 -0.410156 8.332031 -0.234375 8.21875 -0.140625 C 8.101562 -0.046875 7.9375 0 7.71875 0 L 5.453125 0 C 5.253906 0 5.09375 -0.046875 4.96875 -0.140625 C 4.851562 -0.234375 4.796875 -0.410156 4.796875 -0.671875 L 4.796875 -11.84375 L 1.265625 -11.84375 C 1.003906 -11.84375 0.828125 -11.90625 0.734375 -12.03125 C 0.640625 -12.15625 0.59375 -12.316406 0.59375 -12.515625 L 0.59375 -14.421875 C 0.59375 -14.628906 0.640625 -14.789062 0.734375 -14.90625 C 0.828125 -15.019531 1.003906 -15.078125 1.265625 -15.078125 Z M 11.890625 -15.078125 "/></g></g></g></svg>