<svg xmlns="http://www.w3.org/2000/svg" xmlns:xlink="http://www.w3.org/1999/xlink" width="196" zoomAndPan="magnify" viewBox="0 0 147 46.499999" height="62" preserveAspectRatio="xMidYMid meet" version="1.0"><defs><g/><clipPath id="392b9abeb2"><path d="M 22 2.226562 L 44.117188 2.226562 L 44.117188 23 L 22 23 Z M 22 2.226562 " clip-rule="nonzero"/></clipPath><clipPath id="0a54ea9b86"><path d="M 13.691406 10 L 44.117188 10 L 44.117188 46.003906 L 13.691406 46.003906 Z M 13.691406 10 " clip-rule="nonzero"/></clipPath><clipPath id="1d61491245"><path d="M 36.214844 23.945312 L 13.695312 10.980469 L 13.695312 19.398438 L 37.988281 33.386719 L 28.90625 38.613281 L 13.695312 29.859375 L 13.695312 37.25 L 28.90625 46.003906 L 44.113281 37.25 L 44.113281 28.496094 Z M 36.214844 23.945312 " clip-rule="evenodd"/></clipPath><linearGradient x1="88.800222" gradientTransform="matrix(0.00284596, 0, 0, 0.00283793, 13.695965, 2.226064)" y1="3024.586662" x2="9252.088247" gradientUnits="userSpaceOnUse" y2="16409.352998" id="47abba16d4"><stop stop-opacity="1" stop-color="rgb(0%, 27.806091%, 56.504822%)" offset="0"/><stop stop-opacity="1" stop-color="rgb(0.0335693%, 27.954102%, 56.652832%)" offset="0.0078125"/><stop stop-opacity="1" stop-color="rgb(0.100708%, 28.250122%, 56.948853%)" offset="0.015625"/><stop stop-opacity="1" stop-color="rgb(0.167847%, 28.546143%, 57.244873%)" offset="0.0234375"/><stop stop-opacity="1" stop-color="rgb(0.234985%, 28.843689%, 57.540894%)" offset="0.03125"/><stop stop-opacity="1" stop-color="rgb(0.302124%, 29.139709%, 57.836914%)" offset="0.0390625"/><stop stop-opacity="1" stop-color="rgb(0.369263%, 29.437256%, 58.131409%)" offset="0.046875"/><stop stop-opacity="1" stop-color="rgb(0.436401%, 29.733276%, 58.427429%)" offset="0.0546875"/><stop stop-opacity="1" stop-color="rgb(0.50354%, 30.030823%, 58.72345%)" offset="0.0625"/><stop stop-opacity="1" stop-color="rgb(0.570679%, 30.326843%, 59.01947%)" offset="0.0703125"/><stop stop-opacity="1" stop-color="rgb(0.637817%, 30.62439%, 59.315491%)" offset="0.078125"/><stop stop-opacity="1" stop-color="rgb(0.704956%, 30.92041%, 59.611511%)" offset="0.0859375"/><stop stop-opacity="1" stop-color="rgb(0.772095%, 31.217957%, 59.907532%)" offset="0.09375"/><stop stop-opacity="1" stop-color="rgb(0.839233%, 31.513977%, 60.202026%)" offset="0.101562"/><stop stop-opacity="1" stop-color="rgb(0.906372%, 31.811523%, 60.498047%)" offset="0.109375"/><stop stop-opacity="1" stop-color="rgb(0.973511%, 32.107544%, 60.794067%)" offset="0.117188"/><stop stop-opacity="1" stop-color="rgb(1.040649%, 32.40509%, 61.090088%)" offset="0.125"/><stop stop-opacity="1" stop-color="rgb(1.107788%, 32.701111%, 61.386108%)" offset="0.132812"/><stop stop-opacity="1" stop-color="rgb(1.174927%, 32.998657%, 61.682129%)" offset="0.140625"/><stop stop-opacity="1" stop-color="rgb(1.242065%, 33.294678%, 61.978149%)" offset="0.148437"/><stop stop-opacity="1" stop-color="rgb(1.309204%, 33.590698%, 62.272644%)" offset="0.15625"/><stop stop-opacity="1" stop-color="rgb(1.376343%, 33.888245%, 62.568665%)" offset="0.164062"/><stop stop-opacity="1" stop-color="rgb(1.443481%, 34.184265%, 62.864685%)" offset="0.171875"/><stop stop-opacity="1" stop-color="rgb(1.51062%, 34.481812%, 63.160706%)" offset="0.179688"/><stop stop-opacity="1" stop-color="rgb(1.577759%, 34.777832%, 63.456726%)" offset="0.1875"/><stop stop-opacity="1" stop-color="rgb(1.644897%, 35.075378%, 63.752747%)" offset="0.195312"/><stop stop-opacity="1" stop-color="rgb(1.712036%, 35.371399%, 64.047241%)" offset="0.203125"/><stop stop-opacity="1" stop-color="rgb(1.779175%, 35.668945%, 64.343262%)" offset="0.210938"/><stop stop-opacity="1" stop-color="rgb(1.846313%, 35.964966%, 64.639282%)" offset="0.21875"/><stop stop-opacity="1" stop-color="rgb(1.913452%, 36.262512%, 64.935303%)" offset="0.226562"/><stop stop-opacity="1" stop-color="rgb(1.980591%, 36.558533%, 65.231323%)" offset="0.234375"/><stop stop-opacity="1" stop-color="rgb(2.047729%, 36.856079%, 65.527344%)" offset="0.242187"/><stop stop-opacity="1" stop-color="rgb(2.114868%, 37.1521%, 65.823364%)" offset="0.25"/><stop stop-opacity="1" stop-color="rgb(2.180481%, 37.449646%, 66.117859%)" offset="0.257812"/><stop stop-opacity="1" stop-color="rgb(2.24762%, 37.745667%, 66.413879%)" offset="0.265625"/><stop stop-opacity="1" stop-color="rgb(2.314758%, 38.041687%, 66.7099%)" offset="0.273437"/><stop stop-opacity="1" stop-color="rgb(2.381897%, 38.339233%, 67.00592%)" offset="0.28125"/><stop stop-opacity="1" stop-color="rgb(2.449036%, 38.635254%, 67.301941%)" offset="0.289062"/><stop stop-opacity="1" stop-color="rgb(2.516174%, 38.9328%, 67.597961%)" offset="0.296875"/><stop stop-opacity="1" stop-color="rgb(2.583313%, 39.228821%, 67.893982%)" offset="0.304687"/><stop stop-opacity="1" stop-color="rgb(2.650452%, 39.526367%, 68.188477%)" offset="0.3125"/><stop stop-opacity="1" stop-color="rgb(2.71759%, 39.822388%, 68.484497%)" offset="0.320312"/><stop stop-opacity="1" stop-color="rgb(2.784729%, 40.119934%, 68.780518%)" offset="0.328125"/><stop stop-opacity="1" stop-color="rgb(2.851868%, 40.415955%, 69.076538%)" offset="0.335937"/><stop stop-opacity="1" stop-color="rgb(2.919006%, 40.713501%, 69.372559%)" offset="0.34375"/><stop stop-opacity="1" stop-color="rgb(2.986145%, 41.009521%, 69.668579%)" offset="0.351562"/><stop stop-opacity="1" stop-color="rgb(3.053284%, 41.307068%, 69.963074%)" offset="0.359375"/><stop stop-opacity="1" stop-color="rgb(3.120422%, 41.603088%, 70.259094%)" offset="0.367188"/><stop stop-opacity="1" stop-color="rgb(3.187561%, 41.900635%, 70.555115%)" offset="0.372212"/><stop stop-opacity="1" stop-color="rgb(3.22113%, 42.048645%, 70.703125%)" offset="0.375"/><stop stop-opacity="1" stop-color="rgb(3.2547%, 42.196655%, 70.851135%)" offset="0.382812"/><stop stop-opacity="1" stop-color="rgb(3.321838%, 42.494202%, 71.147156%)" offset="0.390625"/><stop stop-opacity="1" stop-color="rgb(3.388977%, 42.790222%, 71.443176%)" offset="0.398437"/><stop stop-opacity="1" stop-color="rgb(3.456116%, 43.086243%, 71.739197%)" offset="0.40625"/><stop stop-opacity="1" stop-color="rgb(3.523254%, 43.383789%, 72.033691%)" offset="0.414062"/><stop stop-opacity="1" stop-color="rgb(3.590393%, 43.67981%, 72.329712%)" offset="0.421875"/><stop stop-opacity="1" stop-color="rgb(3.657532%, 43.977356%, 72.625732%)" offset="0.429687"/><stop stop-opacity="1" stop-color="rgb(3.72467%, 44.273376%, 72.921753%)" offset="0.4375"/><stop stop-opacity="1" stop-color="rgb(3.791809%, 44.570923%, 73.217773%)" offset="0.445312"/><stop stop-opacity="1" stop-color="rgb(3.858948%, 44.866943%, 73.513794%)" offset="0.453125"/><stop stop-opacity="1" stop-color="rgb(3.926086%, 45.16449%, 73.808289%)" offset="0.460937"/><stop stop-opacity="1" stop-color="rgb(3.993225%, 45.46051%, 74.104309%)" offset="0.46875"/><stop stop-opacity="1" stop-color="rgb(4.060364%, 45.758057%, 74.40033%)" offset="0.476562"/><stop stop-opacity="1" stop-color="rgb(4.127502%, 46.054077%, 74.69635%)" offset="0.484375"/><stop stop-opacity="1" stop-color="rgb(4.194641%, 46.351624%, 74.992371%)" offset="0.492187"/><stop stop-opacity="1" stop-color="rgb(4.26178%, 46.647644%, 75.288391%)" offset="0.5"/><stop stop-opacity="1" stop-color="rgb(4.328918%, 46.94519%, 75.584412%)" offset="0.507812"/><stop stop-opacity="1" stop-color="rgb(4.396057%, 47.241211%, 75.878906%)" offset="0.515625"/><stop stop-opacity="1" stop-color="rgb(4.463196%, 47.537231%, 76.174927%)" offset="0.523437"/><stop stop-opacity="1" stop-color="rgb(4.530334%, 47.834778%, 76.470947%)" offset="0.53125"/><stop stop-opacity="1" stop-color="rgb(4.597473%, 48.130798%, 76.766968%)" offset="0.539062"/><stop stop-opacity="1" stop-color="rgb(4.663086%, 48.428345%, 77.062988%)" offset="0.546875"/><stop stop-opacity="1" stop-color="rgb(4.730225%, 48.724365%, 77.359009%)" offset="0.554688"/><stop stop-opacity="1" stop-color="rgb(4.797363%, 49.021912%, 77.655029%)" offset="0.5625"/><stop stop-opacity="1" stop-color="rgb(4.864502%, 49.317932%, 77.949524%)" offset="0.570312"/><stop stop-opacity="1" stop-color="rgb(4.931641%, 49.615479%, 78.245544%)" offset="0.578125"/><stop stop-opacity="1" stop-color="rgb(4.998779%, 49.911499%, 78.541565%)" offset="0.585937"/><stop stop-opacity="1" stop-color="rgb(5.065918%, 50.209045%, 78.837585%)" offset="0.59375"/><stop stop-opacity="1" stop-color="rgb(5.133057%, 50.505066%, 79.133606%)" offset="0.601562"/><stop stop-opacity="1" stop-color="rgb(5.200195%, 50.802612%, 79.429626%)" offset="0.609375"/><stop stop-opacity="1" stop-color="rgb(5.267334%, 51.098633%, 79.724121%)" offset="0.617188"/><stop stop-opacity="1" stop-color="rgb(5.334473%, 51.396179%, 80.020142%)" offset="0.625"/><stop stop-opacity="1" stop-color="rgb(5.401611%, 51.6922%, 80.316162%)" offset="0.627788"/><stop stop-opacity="1" stop-color="rgb(5.435181%, 51.841736%, 80.464172%)" offset="0.632812"/><stop stop-opacity="1" stop-color="rgb(5.46875%, 51.989746%, 80.612183%)" offset="0.640625"/><stop stop-opacity="1" stop-color="rgb(5.535889%, 52.285767%, 80.908203%)" offset="0.648437"/><stop stop-opacity="1" stop-color="rgb(5.603027%, 52.581787%, 81.204224%)" offset="0.65625"/><stop stop-opacity="1" stop-color="rgb(5.670166%, 52.879333%, 81.500244%)" offset="0.664062"/><stop stop-opacity="1" stop-color="rgb(5.737305%, 53.175354%, 81.794739%)" offset="0.671875"/><stop stop-opacity="1" stop-color="rgb(5.804443%, 53.4729%, 82.090759%)" offset="0.679688"/><stop stop-opacity="1" stop-color="rgb(5.871582%, 53.768921%, 82.38678%)" offset="0.6875"/><stop stop-opacity="1" stop-color="rgb(5.938721%, 54.066467%, 82.6828%)" offset="0.695312"/><stop stop-opacity="1" stop-color="rgb(6.005859%, 54.362488%, 82.978821%)" offset="0.703125"/><stop stop-opacity="1" stop-color="rgb(6.072998%, 54.660034%, 83.274841%)" offset="0.710937"/><stop stop-opacity="1" stop-color="rgb(6.140137%, 54.956055%, 83.570862%)" offset="0.71875"/><stop stop-opacity="1" stop-color="rgb(6.207275%, 55.253601%, 83.865356%)" offset="0.726562"/><stop stop-opacity="1" stop-color="rgb(6.274414%, 55.549622%, 84.161377%)" offset="0.734375"/><stop stop-opacity="1" stop-color="rgb(6.341553%, 55.847168%, 84.457397%)" offset="0.742187"/><stop stop-opacity="1" stop-color="rgb(6.408691%, 56.143188%, 84.753418%)" offset="0.75"/><stop stop-opacity="1" stop-color="rgb(6.47583%, 56.440735%, 85.049438%)" offset="0.757812"/><stop stop-opacity="1" stop-color="rgb(6.542969%, 56.736755%, 85.345459%)" offset="0.765625"/><stop stop-opacity="1" stop-color="rgb(6.610107%, 57.034302%, 85.639954%)" offset="0.773437"/><stop stop-opacity="1" stop-color="rgb(6.677246%, 57.330322%, 85.935974%)" offset="0.78125"/><stop stop-opacity="1" stop-color="rgb(6.744385%, 57.626343%, 86.231995%)" offset="0.789062"/><stop stop-opacity="1" stop-color="rgb(6.811523%, 57.923889%, 86.528015%)" offset="0.796875"/><stop stop-opacity="1" stop-color="rgb(6.878662%, 58.21991%, 86.824036%)" offset="0.804687"/><stop stop-opacity="1" stop-color="rgb(6.945801%, 58.517456%, 87.120056%)" offset="0.8125"/><stop stop-opacity="1" stop-color="rgb(7.012939%, 58.813477%, 87.416077%)" offset="0.820312"/><stop stop-opacity="1" stop-color="rgb(7.072449%, 59.080505%, 87.68158%)" offset="0.828125"/><stop stop-opacity="1" stop-color="rgb(7.099915%, 59.199524%, 87.799072%)" offset="0.84375"/><stop stop-opacity="1" stop-color="rgb(7.099915%, 59.199524%, 87.799072%)" offset="0.875"/><stop stop-opacity="1" stop-color="rgb(7.099915%, 59.199524%, 87.799072%)" offset="1"/></linearGradient><clipPath id="9289a894d0"><path d="M 35 10 L 44.117188 10 L 44.117188 15 L 35 15 Z M 35 10 " clip-rule="nonzero"/></clipPath></defs><g clip-path="url(#392b9abeb2)"><path fill="#0067b0" d="M 31.761719 18.09375 L 39.070312 22.300781 L 44.113281 19.398438 L 44.113281 10.980469 L 28.90625 2.226562 L 22.597656 5.855469 L 37.804688 14.613281 Z M 31.761719 18.09375 " fill-opacity="1" fill-rule="evenodd"/></g><g clip-path="url(#0a54ea9b86)"><g clip-path="url(#1d61491245)"><path fill="url(#47abba16d4)" d="M 13.695312 10.980469 L 13.695312 46.003906 L 44.113281 46.003906 L 44.113281 10.980469 Z M 13.695312 10.980469 " fill-rule="nonzero"/></g></g><g clip-path="url(#9289a894d0)"><path fill="#003780" d="M 37.804688 14.613281 L 44.113281 10.980469 L 35.871094 13.5 Z M 37.804688 14.613281 " fill-opacity="1" fill-rule="evenodd"/></g><g fill="#ff00ff" fill-opacity="1"><g transform="translate(44.613474, 38.733743)"><g><path d="M 11.6875 -2.96875 C 11.925781 -2.96875 12.085938 -2.914062 12.171875 -2.8125 C 12.253906 -2.707031 12.296875 -2.554688 12.296875 -2.359375 L 12.296875 -0.609375 C 12.296875 -0.429688 12.253906 -0.285156 12.171875 -0.171875 C 12.085938 -0.0546875 11.925781 0 11.6875 0 L 2.1875 0 C 1.945312 0 1.78125 -0.0546875 1.6875 -0.171875 C 1.601562 -0.285156 1.5625 -0.429688 1.5625 -0.609375 L 1.5625 -13.34375 C 1.5625 -13.539062 1.601562 -13.691406 1.6875 -13.796875 C 1.78125 -13.898438 1.945312 -13.953125 2.1875 -13.953125 L 11.328125 -13.953125 C 11.566406 -13.953125 11.726562 -13.898438 11.8125 -13.796875 C 11.894531 -13.691406 11.9375 -13.539062 11.9375 -13.34375 L 11.9375 -11.578125 C 11.9375 -11.390625 11.894531 -11.238281 11.8125 -11.125 C 11.726562 -11.019531 11.566406 -10.96875 11.328125 -10.96875 L 4.921875 -10.96875 L 4.921875 -8.65625 L 10.59375 -8.65625 C 10.84375 -8.65625 11.007812 -8.597656 11.09375 -8.484375 C 11.175781 -8.378906 11.21875 -8.226562 11.21875 -8.03125 L 11.21875 -6.375 C 11.21875 -6.195312 11.175781 -6.050781 11.09375 -5.9375 C 11.007812 -5.820312 10.84375 -5.765625 10.59375 -5.765625 L 4.921875 -5.765625 L 4.921875 -2.96875 Z M 11.6875 -2.96875 "/></g></g></g><g fill="#ff00ff" fill-opacity="1"><g transform="translate(57.906421, 38.733743)"><g><path d="M 11 -13.953125 C 11.238281 -13.953125 11.398438 -13.898438 11.484375 -13.796875 C 11.578125 -13.691406 11.625 -13.539062 11.625 -13.34375 L 11.625 -11.578125 C 11.625 -11.390625 11.578125 -11.238281 11.484375 -11.125 C 11.398438 -11.019531 11.238281 -10.96875 11 -10.96875 L 7.765625 -10.96875 L 7.765625 -0.609375 C 7.765625 -0.367188 7.707031 -0.207031 7.59375 -0.125 C 7.488281 -0.0390625 7.335938 0 7.140625 0 L 5.046875 0 C 4.859375 0 4.707031 -0.0390625 4.59375 -0.125 C 4.488281 -0.207031 4.4375 -0.367188 4.4375 -0.609375 L 4.4375 -10.96875 L 1.171875 -10.96875 C 0.929688 -10.96875 0.765625 -11.019531 0.671875 -11.125 C 0.585938 -11.238281 0.546875 -11.390625 0.546875 -11.578125 L 0.546875 -13.34375 C 0.546875 -13.539062 0.585938 -13.691406 0.671875 -13.796875 C 0.765625 -13.898438 0.929688 -13.953125 1.171875 -13.953125 Z M 11 -13.953125 "/></g></g></g><g fill="#ff00ff" fill-opacity="1"><g transform="translate(70.075722, 38.733743)"><g><path d="M 13.5625 -0.59375 C 13.625 -0.46875 13.640625 -0.335938 13.609375 -0.203125 C 13.578125 -0.0664062 13.441406 0 13.203125 0 L 10.984375 0 C 10.753906 0 10.582031 -0.0390625 10.46875 -0.125 C 10.351562 -0.207031 10.253906 -0.378906 10.171875 -0.640625 L 9.578125 -2.3125 L 4.390625 -2.3125 L 3.796875 -0.640625 C 3.710938 -0.378906 3.613281 -0.207031 3.5 -0.125 C 3.394531 -0.0390625 3.222656 0 2.984375 0 L 0.765625 0 C 0.535156 0 0.398438 -0.0664062 0.359375 -0.203125 C 0.328125 -0.335938 0.34375 -0.46875 0.40625 -0.59375 L 5.109375 -13.296875 C 5.191406 -13.523438 5.300781 -13.691406 5.4375 -13.796875 C 5.570312 -13.898438 5.753906 -13.953125 5.984375 -13.953125 L 8.015625 -13.953125 C 8.253906 -13.953125 8.429688 -13.898438 8.546875 -13.796875 C 8.671875 -13.691406 8.785156 -13.523438 8.890625 -13.296875 Z M 7 -9.96875 L 5.40625 -5.28125 L 8.59375 -5.28125 Z M 7 -9.96875 "/></g></g></g><g fill="#ff00ff" fill-opacity="1"><g transform="translate(83.962291, 38.733743)"><g/></g></g><g fill="#ff00ff" fill-opacity="1"><g transform="translate(89.707725, 38.733743)"><g><path d="M 11.515625 -7.234375 C 11.554688 -7.210938 11.675781 -7.140625 11.875 -7.015625 C 12.082031 -6.898438 12.304688 -6.722656 12.546875 -6.484375 C 12.785156 -6.242188 13 -5.925781 13.1875 -5.53125 C 13.375 -5.132812 13.46875 -4.648438 13.46875 -4.078125 C 13.46875 -3.179688 13.25 -2.425781 12.8125 -1.8125 C 12.382812 -1.207031 11.789062 -0.753906 11.03125 -0.453125 C 10.28125 -0.148438 9.410156 0 8.421875 0 L 2.1875 0 C 1.945312 0 1.78125 -0.0546875 1.6875 -0.171875 C 1.601562 -0.285156 1.5625 -0.429688 1.5625 -0.609375 L 1.5625 -13.359375 C 1.5625 -13.554688 1.601562 -13.707031 1.6875 -13.8125 C 1.78125 -13.914062 1.945312 -13.96875 2.1875 -13.96875 L 8.125 -13.96875 C 9.28125 -13.96875 10.21875 -13.785156 10.9375 -13.421875 C 11.65625 -13.066406 12.1875 -12.59375 12.53125 -12 C 12.882812 -11.414062 13.0625 -10.796875 13.0625 -10.140625 C 13.0625 -9.429688 12.941406 -8.867188 12.703125 -8.453125 C 12.472656 -8.035156 12.234375 -7.734375 11.984375 -7.546875 C 11.742188 -7.359375 11.585938 -7.253906 11.515625 -7.234375 Z M 8.453125 -3.015625 C 8.984375 -3.015625 9.390625 -3.125 9.671875 -3.34375 C 9.953125 -3.5625 10.09375 -3.910156 10.09375 -4.390625 C 10.09375 -4.878906 9.925781 -5.21875 9.59375 -5.40625 C 9.257812 -5.59375 8.835938 -5.6875 8.328125 -5.6875 L 7.84375 -5.6875 C 7.601562 -5.6875 7.441406 -5.738281 7.359375 -5.84375 C 7.273438 -5.957031 7.234375 -6.109375 7.234375 -6.296875 L 7.234375 -7.90625 C 7.234375 -8.101562 7.273438 -8.253906 7.359375 -8.359375 C 7.441406 -8.472656 7.601562 -8.53125 7.84375 -8.53125 L 8.125 -8.53125 C 8.738281 -8.53125 9.179688 -8.640625 9.453125 -8.859375 C 9.734375 -9.078125 9.875 -9.390625 9.875 -9.796875 C 9.875 -10.273438 9.71875 -10.59375 9.40625 -10.75 C 9.101562 -10.90625 8.675781 -10.984375 8.125 -10.984375 L 4.890625 -10.984375 L 4.890625 -3.015625 Z M 8.453125 -3.015625 "/></g></g></g><g fill="#ff00ff" fill-opacity="1"><g transform="translate(104.272721, 38.733743)"><g><path d="M 12.53125 -4.46875 C 12.53125 -3.632812 12.351562 -2.914062 12 -2.3125 C 11.644531 -1.707031 11.1875 -1.207031 10.625 -0.8125 C 10.0625 -0.425781 9.445312 -0.144531 8.78125 0.03125 C 8.113281 0.21875 7.460938 0.3125 6.828125 0.3125 C 6.191406 0.3125 5.546875 0.21875 4.890625 0.03125 C 4.234375 -0.144531 3.617188 -0.425781 3.046875 -0.8125 C 2.484375 -1.207031 2.03125 -1.707031 1.6875 -2.3125 C 1.34375 -2.914062 1.171875 -3.632812 1.171875 -4.46875 L 1.171875 -9.484375 C 1.171875 -10.316406 1.34375 -11.035156 1.6875 -11.640625 C 2.03125 -12.242188 2.484375 -12.738281 3.046875 -13.125 C 3.617188 -13.519531 4.234375 -13.804688 4.890625 -13.984375 C 5.546875 -14.171875 6.191406 -14.265625 6.828125 -14.265625 C 7.460938 -14.265625 8.113281 -14.171875 8.78125 -13.984375 C 9.445312 -13.804688 10.0625 -13.519531 10.625 -13.125 C 11.1875 -12.738281 11.644531 -12.242188 12 -11.640625 C 12.351562 -11.035156 12.53125 -10.316406 12.53125 -9.484375 Z M 9.203125 -9.1875 C 9.203125 -9.863281 8.984375 -10.390625 8.546875 -10.765625 C 8.109375 -11.140625 7.535156 -11.328125 6.828125 -11.328125 C 6.128906 -11.328125 5.5625 -11.140625 5.125 -10.765625 C 4.6875 -10.390625 4.46875 -9.863281 4.46875 -9.1875 L 4.46875 -4.765625 C 4.46875 -4.085938 4.6875 -3.5625 5.125 -3.1875 C 5.5625 -2.8125 6.128906 -2.625 6.828125 -2.625 C 7.535156 -2.625 8.109375 -2.8125 8.546875 -3.1875 C 8.984375 -3.5625 9.203125 -4.085938 9.203125 -4.765625 Z M 9.203125 -9.1875 "/></g></g></g><g fill="#ff00ff" fill-opacity="1"><g transform="translate(117.94728, 38.733743)"><g><path d="M 11 -13.953125 C 11.238281 -13.953125 11.398438 -13.898438 11.484375 -13.796875 C 11.578125 -13.691406 11.625 -13.539062 11.625 -13.34375 L 11.625 -11.578125 C 11.625 -11.390625 11.578125 -11.238281 11.484375 -11.125 C 11.398438 -11.019531 11.238281 -10.96875 11 -10.96875 L 7.765625 -10.96875 L 7.765625 -0.609375 C 7.765625 -0.367188 7.707031 -0.207031 7.59375 -0.125 C 7.488281 -0.0390625 7.335938 0 7.140625 0 L 5.046875 0 C 4.859375 0 4.707031 -0.0390625 4.59375 -0.125 C 4.488281 -0.207031 4.4375 -0.367188 4.4375 -0.609375 L 4.4375 -10.96875 L 1.171875 -10.96875 C 0.929688 -10.96875 0.765625 -11.019531 0.671875 -11.125 C 0.585938 -11.238281 0.546875 -11.390625 0.546875 -11.578125 L 0.546875 -13.34375 C 0.546875 -13.539062 0.585938 -13.691406 0.671875 -13.796875 C 0.765625 -13.898438 0.929688 -13.953125 1.171875 -13.953125 Z M 11 -13.953125 "/></g></g></g><g fill="#00ffff" fill-opacity="1"><g transform="translate(43.762802, 39.784232)"><g><path d="M 11.6875 -2.96875 C 11.925781 -2.96875 12.085938 -2.914062 12.171875 -2.8125 C 12.253906 -2.707031 12.296875 -2.554688 12.296875 -2.359375 L 12.296875 -0.609375 C 12.296875 -0.429688 12.253906 -0.285156 12.171875 -0.171875 C 12.085938 -0.0546875 11.925781 0 11.6875 0 L 2.1875 0 C 1.945312 0 1.78125 -0.0546875 1.6875 -0.171875 C 1.601562 -0.285156 1.5625 -0.429688 1.5625 -0.609375 L 1.5625 -13.34375 C 1.5625 -13.539062 1.601562 -13.691406 1.6875 -13.796875 C 1.78125 -13.898438 1.945312 -13.953125 2.1875 -13.953125 L 11.328125 -13.953125 C 11.566406 -13.953125 11.726562 -13.898438 11.8125 -13.796875 C 11.894531 -13.691406 11.9375 -13.539062 11.9375 -13.34375 L 11.9375 -11.578125 C 11.9375 -11.390625 11.894531 -11.238281 11.8125 -11.125 C 11.726562 -11.019531 11.566406 -10.96875 11.328125 -10.96875 L 4.921875 -10.96875 L 4.921875 -8.65625 L 10.59375 -8.65625 C 10.84375 -8.65625 11.007812 -8.597656 11.09375 -8.484375 C 11.175781 -8.378906 11.21875 -8.226562 11.21875 -8.03125 L 11.21875 -6.375 C 11.21875 -6.195312 11.175781 -6.050781 11.09375 -5.9375 C 11.007812 -5.820312 10.84375 -5.765625 10.59375 -5.765625 L 4.921875 -5.765625 L 4.921875 -2.96875 Z M 11.6875 -2.96875 "/></g></g></g><g fill="#00ffff" fill-opacity="1"><g transform="translate(57.055749, 39.784232)"><g><path d="M 11 -13.953125 C 11.238281 -13.953125 11.398438 -13.898438 11.484375 -13.796875 C 11.578125 -13.691406 11.625 -13.539062 11.625 -13.34375 L 11.625 -11.578125 C 11.625 -11.390625 11.578125 -11.238281 11.484375 -11.125 C 11.398438 -11.019531 11.238281 -10.96875 11 -10.96875 L 7.765625 -10.96875 L 7.765625 -0.609375 C 7.765625 -0.367188 7.707031 -0.207031 7.59375 -0.125 C 7.488281 -0.0390625 7.335938 0 7.140625 0 L 5.046875 0 C 4.859375 0 4.707031 -0.0390625 4.59375 -0.125 C 4.488281 -0.207031 4.4375 -0.367188 4.4375 -0.609375 L 4.4375 -10.96875 L 1.171875 -10.96875 C 0.929688 -10.96875 0.765625 -11.019531 0.671875 -11.125 C 0.585938 -11.238281 0.546875 -11.390625 0.546875 -11.578125 L 0.546875 -13.34375 C 0.546875 -13.539062 0.585938 -13.691406 0.671875 -13.796875 C 0.765625 -13.898438 0.929688 -13.953125 1.171875 -13.953125 Z M 11 -13.953125 "/></g></g></g><g fill="#00ffff" fill-opacity="1"><g transform="translate(69.22505, 39.784232)"><g><path d="M 13.5625 -0.59375 C 13.625 -0.46875 13.640625 -0.335938 13.609375 -0.203125 C 13.578125 -0.0664062 13.441406 0 13.203125 0 L 10.984375 0 C 10.753906 0 10.582031 -0.0390625 10.46875 -0.125 C 10.351562 -0.207031 10.253906 -0.378906 10.171875 -0.640625 L 9.578125 -2.3125 L 4.390625 -2.3125 L 3.796875 -0.640625 C 3.710938 -0.378906 3.613281 -0.207031 3.5 -0.125 C 3.394531 -0.0390625 3.222656 0 2.984375 0 L 0.765625 0 C 0.535156 0 0.398438 -0.0664062 0.359375 -0.203125 C 0.328125 -0.335938 0.34375 -0.46875 0.40625 -0.59375 L 5.109375 -13.296875 C 5.191406 -13.523438 5.300781 -13.691406 5.4375 -13.796875 C 5.570312 -13.898438 5.753906 -13.953125 5.984375 -13.953125 L 8.015625 -13.953125 C 8.253906 -13.953125 8.429688 -13.898438 8.546875 -13.796875 C 8.671875 -13.691406 8.785156 -13.523438 8.890625 -13.296875 Z M 7 -9.96875 L 5.40625 -5.28125 L 8.59375 -5.28125 Z M 7 -9.96875 "/></g></g></g><g fill="#00ffff" fill-opacity="1"><g transform="translate(83.111618, 39.784232)"><g/></g></g><g fill="#00ffff" fill-opacity="1"><g transform="translate(88.857052, 39.784232)"><g><path d="M 11.515625 -7.234375 C 11.554688 -7.210938 11.675781 -7.140625 11.875 -7.015625 C 12.082031 -6.898438 12.304688 -6.722656 12.546875 -6.484375 C 12.785156 -6.242188 13 -5.925781 13.1875 -5.53125 C 13.375 -5.132812 13.46875 -4.648438 13.46875 -4.078125 C 13.46875 -3.179688 13.25 -2.425781 12.8125 -1.8125 C 12.382812 -1.207031 11.789062 -0.753906 11.03125 -0.453125 C 10.28125 -0.148438 9.410156 0 8.421875 0 L 2.1875 0 C 1.945312 0 1.78125 -0.0546875 1.6875 -0.171875 C 1.601562 -0.285156 1.5625 -0.429688 1.5625 -0.609375 L 1.5625 -13.359375 C 1.5625 -13.554688 1.601562 -13.707031 1.6875 -13.8125 C 1.78125 -13.914062 1.945312 -13.96875 2.1875 -13.96875 L 8.125 -13.96875 C 9.28125 -13.96875 10.21875 -13.785156 10.9375 -13.421875 C 11.65625 -13.066406 12.1875 -12.59375 12.53125 -12 C 12.882812 -11.414062 13.0625 -10.796875 13.0625 -10.140625 C 13.0625 -9.429688 12.941406 -8.867188 12.703125 -8.453125 C 12.472656 -8.035156 12.234375 -7.734375 11.984375 -7.546875 C 11.742188 -7.359375 11.585938 -7.253906 11.515625 -7.234375 Z M 8.453125 -3.015625 C 8.984375 -3.015625 9.390625 -3.125 9.671875 -3.34375 C 9.953125 -3.5625 10.09375 -3.910156 10.09375 -4.390625 C 10.09375 -4.878906 9.925781 -5.21875 9.59375 -5.40625 C 9.257812 -5.59375 8.835938 -5.6875 8.328125 -5.6875 L 7.84375 -5.6875 C 7.601562 -5.6875 7.441406 -5.738281 7.359375 -5.84375 C 7.273438 -5.957031 7.234375 -6.109375 7.234375 -6.296875 L 7.234375 -7.90625 C 7.234375 -8.101562 7.273438 -8.253906 7.359375 -8.359375 C 7.441406 -8.472656 7.601562 -8.53125 7.84375 -8.53125 L 8.125 -8.53125 C 8.738281 -8.53125 9.179688 -8.640625 9.453125 -8.859375 C 9.734375 -9.078125 9.875 -9.390625 9.875 -9.796875 C 9.875 -10.273438 9.71875 -10.59375 9.40625 -10.75 C 9.101562 -10.90625 8.675781 -10.984375 8.125 -10.984375 L 4.890625 -10.984375 L 4.890625 -3.015625 Z M 8.453125 -3.015625 "/></g></g></g><g fill="#00ffff" fill-opacity="1"><g transform="translate(103.422048, 39.784232)"><g><path d="M 12.53125 -4.46875 C 12.53125 -3.632812 12.351562 -2.914062 12 -2.3125 C 11.644531 -1.707031 11.1875 -1.207031 10.625 -0.8125 C 10.0625 -0.425781 9.445312 -0.144531 8.78125 0.03125 C 8.113281 0.21875 7.460938 0.3125 6.828125 0.3125 C 6.191406 0.3125 5.546875 0.21875 4.890625 0.03125 C 4.234375 -0.144531 3.617188 -0.425781 3.046875 -0.8125 C 2.484375 -1.207031 2.03125 -1.707031 1.6875 -2.3125 C 1.34375 -2.914062 1.171875 -3.632812 1.171875 -4.46875 L 1.171875 -9.484375 C 1.171875 -10.316406 1.34375 -11.035156 1.6875 -11.640625 C 2.03125 -12.242188 2.484375 -12.738281 3.046875 -13.125 C 3.617188 -13.519531 4.234375 -13.804688 4.890625 -13.984375 C 5.546875 -14.171875 6.191406 -14.265625 6.828125 -14.265625 C 7.460938 -14.265625 8.113281 -14.171875 8.78125 -13.984375 C 9.445312 -13.804688 10.0625 -13.519531 10.625 -13.125 C 11.1875 -12.738281 11.644531 -12.242188 12 -11.640625 C 12.351562 -11.035156 12.53125 -10.316406 12.53125 -9.484375 Z M 9.203125 -9.1875 C 9.203125 -9.863281 8.984375 -10.390625 8.546875 -10.765625 C 8.109375 -11.140625 7.535156 -11.328125 6.828125 -11.328125 C 6.128906 -11.328125 5.5625 -11.140625 5.125 -10.765625 C 4.6875 -10.390625 4.46875 -9.863281 4.46875 -9.1875 L 4.46875 -4.765625 C 4.46875 -4.085938 4.6875 -3.5625 5.125 -3.1875 C 5.5625 -2.8125 6.128906 -2.625 6.828125 -2.625 C 7.535156 -2.625 8.109375 -2.8125 8.546875 -3.1875 C 8.984375 -3.5625 9.203125 -4.085938 9.203125 -4.765625 Z M 9.203125 -9.1875 "/></g></g></g><g fill="#00ffff" fill-opacity="1"><g transform="translate(117.096608, 39.784232)"><g><path d="M 11 -13.953125 C 11.238281 -13.953125 11.398438 -13.898438 11.484375 -13.796875 C 11.578125 -13.691406 11.625 -13.539062 11.625 -13.34375 L 11.625 -11.578125 C 11.625 -11.390625 11.578125 -11.238281 11.484375 -11.125 C 11.398438 -11.019531 11.238281 -10.96875 11 -10.96875 L 7.765625 -10.96875 L 7.765625 -0.609375 C 7.765625 -0.367188 7.707031 -0.207031 7.59375 -0.125 C 7.488281 -0.0390625 7.335938 0 7.140625 0 L 5.046875 0 C 4.859375 0 4.707031 -0.0390625 4.59375 -0.125 C 4.488281 -0.207031 4.4375 -0.367188 4.4375 -0.609375 L 4.4375 -10.96875 L 1.171875 -10.96875 C 0.929688 -10.96875 0.765625 -11.019531 0.671875 -11.125 C 0.585938 -11.238281 0.546875 -11.390625 0.546875 -11.578125 L 0.546875 -13.34375 C 0.546875 -13.539062 0.585938 -13.691406 0.671875 -13.796875 C 0.765625 -13.898438 0.929688 -13.953125 1.171875 -13.953125 Z M 11 -13.953125 "/></g></g></g><g fill="#ffffff" fill-opacity="1"><g transform="translate(44.188138, 39.258988)"><g><path d="M 11.6875 -2.96875 C 11.925781 -2.96875 12.085938 -2.914062 12.171875 -2.8125 C 12.253906 -2.707031 12.296875 -2.554688 12.296875 -2.359375 L 12.296875 -0.609375 C 12.296875 -0.429688 12.253906 -0.285156 12.171875 -0.171875 C 12.085938 -0.0546875 11.925781 0 11.6875 0 L 2.1875 0 C 1.945312 0 1.78125 -0.0546875 1.6875 -0.171875 C 1.601562 -0.285156 1.5625 -0.429688 1.5625 -0.609375 L 1.5625 -13.34375 C 1.5625 -13.539062 1.601562 -13.691406 1.6875 -13.796875 C 1.78125 -13.898438 1.945312 -13.953125 2.1875 -13.953125 L 11.328125 -13.953125 C 11.566406 -13.953125 11.726562 -13.898438 11.8125 -13.796875 C 11.894531 -13.691406 11.9375 -13.539062 11.9375 -13.34375 L 11.9375 -11.578125 C 11.9375 -11.390625 11.894531 -11.238281 11.8125 -11.125 C 11.726562 -11.019531 11.566406 -10.96875 11.328125 -10.96875 L 4.921875 -10.96875 L 4.921875 -8.65625 L 10.59375 -8.65625 C 10.84375 -8.65625 11.007812 -8.597656 11.09375 -8.484375 C 11.175781 -8.378906 11.21875 -8.226562 11.21875 -8.03125 L 11.21875 -6.375 C 11.21875 -6.195312 11.175781 -6.050781 11.09375 -5.9375 C 11.007812 -5.820312 10.84375 -5.765625 10.59375 -5.765625 L 4.921875 -5.765625 L 4.921875 -2.96875 Z M 11.6875 -2.96875 "/></g></g></g><g fill="#ffffff" fill-opacity="1"><g transform="translate(57.481085, 39.258988)"><g><path d="M 11 -13.953125 C 11.238281 -13.953125 11.398438 -13.898438 11.484375 -13.796875 C 11.578125 -13.691406 11.625 -13.539062 11.625 -13.34375 L 11.625 -11.578125 C 11.625 -11.390625 11.578125 -11.238281 11.484375 -11.125 C 11.398438 -11.019531 11.238281 -10.96875 11 -10.96875 L 7.765625 -10.96875 L 7.765625 -0.609375 C 7.765625 -0.367188 7.707031 -0.207031 7.59375 -0.125 C 7.488281 -0.0390625 7.335938 0 7.140625 0 L 5.046875 0 C 4.859375 0 4.707031 -0.0390625 4.59375 -0.125 C 4.488281 -0.207031 4.4375 -0.367188 4.4375 -0.609375 L 4.4375 -10.96875 L 1.171875 -10.96875 C 0.929688 -10.96875 0.765625 -11.019531 0.671875 -11.125 C 0.585938 -11.238281 0.546875 -11.390625 0.546875 -11.578125 L 0.546875 -13.34375 C 0.546875 -13.539062 0.585938 -13.691406 0.671875 -13.796875 C 0.765625 -13.898438 0.929688 -13.953125 1.171875 -13.953125 Z M 11 -13.953125 "/></g></g></g><g fill="#ffffff" fill-opacity="1"><g transform="translate(69.650386, 39.258988)"><g><path d="M 13.5625 -0.59375 C 13.625 -0.46875 13.640625 -0.335938 13.609375 -0.203125 C 13.578125 -0.0664062 13.441406 0 13.203125 0 L 10.984375 0 C 10.753906 0 10.582031 -0.0390625 10.46875 -0.125 C 10.351562 -0.207031 10.253906 -0.378906 10.171875 -0.640625 L 9.578125 -2.3125 L 4.390625 -2.3125 L 3.796875 -0.640625 C 3.710938 -0.378906 3.613281 -0.207031 3.5 -0.125 C 3.394531 -0.0390625 3.222656 0 2.984375 0 L 0.765625 0 C 0.535156 0 0.398438 -0.0664062 0.359375 -0.203125 C 0.328125 -0.335938 0.34375 -0.46875 0.40625 -0.59375 L 5.109375 -13.296875 C 5.191406 -13.523438 5.300781 -13.691406 5.4375 -13.796875 C 5.570312 -13.898438 5.753906 -13.953125 5.984375 -13.953125 L 8.015625 -13.953125 C 8.253906 -13.953125 8.429688 -13.898438 8.546875 -13.796875 C 8.671875 -13.691406 8.785156 -13.523438 8.890625 -13.296875 Z M 7 -9.96875 L 5.40625 -5.28125 L 8.59375 -5.28125 Z M 7 -9.96875 "/></g></g></g><g fill="#ffffff" fill-opacity="1"><g transform="translate(83.536955, 39.258988)"><g/></g></g><g fill="#ffffff" fill-opacity="1"><g transform="translate(89.282389, 39.258988)"><g><path d="M 11.515625 -7.234375 C 11.554688 -7.210938 11.675781 -7.140625 11.875 -7.015625 C 12.082031 -6.898438 12.304688 -6.722656 12.546875 -6.484375 C 12.785156 -6.242188 13 -5.925781 13.1875 -5.53125 C 13.375 -5.132812 13.46875 -4.648438 13.46875 -4.078125 C 13.46875 -3.179688 13.25 -2.425781 12.8125 -1.8125 C 12.382812 -1.207031 11.789062 -0.753906 11.03125 -0.453125 C 10.28125 -0.148438 9.410156 0 8.421875 0 L 2.1875 0 C 1.945312 0 1.78125 -0.0546875 1.6875 -0.171875 C 1.601562 -0.285156 1.5625 -0.429688 1.5625 -0.609375 L 1.5625 -13.359375 C 1.5625 -13.554688 1.601562 -13.707031 1.6875 -13.8125 C 1.78125 -13.914062 1.945312 -13.96875 2.1875 -13.96875 L 8.125 -13.96875 C 9.28125 -13.96875 10.21875 -13.785156 10.9375 -13.421875 C 11.65625 -13.066406 12.1875 -12.59375 12.53125 -12 C 12.882812 -11.414062 13.0625 -10.796875 13.0625 -10.140625 C 13.0625 -9.429688 12.941406 -8.867188 12.703125 -8.453125 C 12.472656 -8.035156 12.234375 -7.734375 11.984375 -7.546875 C 11.742188 -7.359375 11.585938 -7.253906 11.515625 -7.234375 Z M 8.453125 -3.015625 C 8.984375 -3.015625 9.390625 -3.125 9.671875 -3.34375 C 9.953125 -3.5625 10.09375 -3.910156 10.09375 -4.390625 C 10.09375 -4.878906 9.925781 -5.21875 9.59375 -5.40625 C 9.257812 -5.59375 8.835938 -5.6875 8.328125 -5.6875 L 7.84375 -5.6875 C 7.601562 -5.6875 7.441406 -5.738281 7.359375 -5.84375 C 7.273438 -5.957031 7.234375 -6.109375 7.234375 -6.296875 L 7.234375 -7.90625 C 7.234375 -8.101562 7.273438 -8.253906 7.359375 -8.359375 C 7.441406 -8.472656 7.601562 -8.53125 7.84375 -8.53125 L 8.125 -8.53125 C 8.738281 -8.53125 9.179688 -8.640625 9.453125 -8.859375 C 9.734375 -9.078125 9.875 -9.390625 9.875 -9.796875 C 9.875 -10.273438 9.71875 -10.59375 9.40625 -10.75 C 9.101562 -10.90625 8.675781 -10.984375 8.125 -10.984375 L 4.890625 -10.984375 L 4.890625 -3.015625 Z M 8.453125 -3.015625 "/></g></g></g><g fill="#ffffff" fill-opacity="1"><g transform="translate(103.847385, 39.258988)"><g><path d="M 12.53125 -4.46875 C 12.53125 -3.632812 12.351562 -2.914062 12 -2.3125 C 11.644531 -1.707031 11.1875 -1.207031 10.625 -0.8125 C 10.0625 -0.425781 9.445312 -0.144531 8.78125 0.03125 C 8.113281 0.21875 7.460938 0.3125 6.828125 0.3125 C 6.191406 0.3125 5.546875 0.21875 4.890625 0.03125 C 4.234375 -0.144531 3.617188 -0.425781 3.046875 -0.8125 C 2.484375 -1.207031 2.03125 -1.707031 1.6875 -2.3125 C 1.34375 -2.914062 1.171875 -3.632812 1.171875 -4.46875 L 1.171875 -9.484375 C 1.171875 -10.316406 1.34375 -11.035156 1.6875 -11.640625 C 2.03125 -12.242188 2.484375 -12.738281 3.046875 -13.125 C 3.617188 -13.519531 4.234375 -13.804688 4.890625 -13.984375 C 5.546875 -14.171875 6.191406 -14.265625 6.828125 -14.265625 C 7.460938 -14.265625 8.113281 -14.171875 8.78125 -13.984375 C 9.445312 -13.804688 10.0625 -13.519531 10.625 -13.125 C 11.1875 -12.738281 11.644531 -12.242188 12 -11.640625 C 12.351562 -11.035156 12.53125 -10.316406 12.53125 -9.484375 Z M 9.203125 -9.1875 C 9.203125 -9.863281 8.984375 -10.390625 8.546875 -10.765625 C 8.109375 -11.140625 7.535156 -11.328125 6.828125 -11.328125 C 6.128906 -11.328125 5.5625 -11.140625 5.125 -10.765625 C 4.6875 -10.390625 4.46875 -9.863281 4.46875 -9.1875 L 4.46875 -4.765625 C 4.46875 -4.085938 4.6875 -3.5625 5.125 -3.1875 C 5.5625 -2.8125 6.128906 -2.625 6.828125 -2.625 C 7.535156 -2.625 8.109375 -2.8125 8.546875 -3.1875 C 8.984375 -3.5625 9.203125 -4.085938 9.203125 -4.765625 Z M 9.203125 -9.1875 "/></g></g></g><g fill="#ffffff" fill-opacity="1"><g transform="translate(117.521944, 39.258988)"><g><path d="M 11 -13.953125 C 11.238281 -13.953125 11.398438 -13.898438 11.484375 -13.796875 C 11.578125 -13.691406 11.625 -13.539062 11.625 -13.34375 L 11.625 -11.578125 C 11.625 -11.390625 11.578125 -11.238281 11.484375 -11.125 C 11.398438 -11.019531 11.238281 -10.96875 11 -10.96875 L 7.765625 -10.96875 L 7.765625 -0.609375 C 7.765625 -0.367188 7.707031 -0.207031 7.59375 -0.125 C 7.488281 -0.0390625 7.335938 0 7.140625 0 L 5.046875 0 C 4.859375 0 4.707031 -0.0390625 4.59375 -0.125 C 4.488281 -0.207031 4.4375 -0.367188 4.4375 -0.609375 L 4.4375 -10.96875 L 1.171875 -10.96875 C 0.929688 -10.96875 0.765625 -11.019531 0.671875 -11.125 C 0.585938 -11.238281 0.546875 -11.390625 0.546875 -11.578125 L 0.546875 -13.34375 C 0.546875 -13.539062 0.585938 -13.691406 0.671875 -13.796875 C 0.765625 -13.898438 0.929688 -13.953125 1.171875 -13.953125 Z M 11 -13.953125 "/></g></g></g><g fill="#ff00ff" fill-opacity="1"><g transform="translate(64.684013, 19.118269)"><g><path d="M 6.015625 -5.984375 C 6.296875 -5.898438 6.597656 -5.796875 6.921875 -5.671875 C 7.242188 -5.554688 7.546875 -5.394531 7.828125 -5.1875 C 8.117188 -4.988281 8.351562 -4.71875 8.53125 -4.375 C 8.71875 -4.03125 8.8125 -3.59375 8.8125 -3.0625 C 8.8125 -2.3125 8.628906 -1.691406 8.265625 -1.203125 C 7.898438 -0.722656 7.40625 -0.363281 6.78125 -0.125 C 6.15625 0.113281 5.441406 0.234375 4.640625 0.234375 C 4.148438 0.234375 3.65625 0.160156 3.15625 0.015625 C 2.65625 -0.117188 2.195312 -0.320312 1.78125 -0.59375 C 1.375 -0.875 1.046875 -1.222656 0.796875 -1.640625 C 0.546875 -2.054688 0.421875 -2.539062 0.421875 -3.09375 C 0.421875 -3.269531 0.453125 -3.382812 0.515625 -3.4375 C 0.578125 -3.5 0.695312 -3.53125 0.875 -3.53125 L 2.390625 -3.53125 C 2.578125 -3.53125 2.71875 -3.503906 2.8125 -3.453125 C 2.90625 -3.410156 2.957031 -3.289062 2.96875 -3.09375 C 2.976562 -2.988281 3.003906 -2.882812 3.046875 -2.78125 C 3.085938 -2.675781 3.160156 -2.5625 3.265625 -2.4375 C 3.421875 -2.25 3.640625 -2.113281 3.921875 -2.03125 C 4.210938 -1.957031 4.503906 -1.921875 4.796875 -1.921875 C 5.222656 -1.921875 5.582031 -1.988281 5.875 -2.125 C 6.175781 -2.257812 6.328125 -2.550781 6.328125 -3 C 6.328125 -3.289062 6.191406 -3.503906 5.921875 -3.640625 C 5.648438 -3.773438 5.304688 -3.882812 4.890625 -3.96875 C 4.484375 -4.0625 4.054688 -4.175781 3.609375 -4.3125 C 3.085938 -4.476562 2.59375 -4.675781 2.125 -4.90625 C 1.65625 -5.132812 1.273438 -5.445312 0.984375 -5.84375 C 0.703125 -6.238281 0.5625 -6.765625 0.5625 -7.421875 C 0.5625 -8.109375 0.738281 -8.675781 1.09375 -9.125 C 1.457031 -9.582031 1.929688 -9.925781 2.515625 -10.15625 C 3.109375 -10.394531 3.726562 -10.523438 4.375 -10.546875 C 4.875 -10.546875 5.367188 -10.488281 5.859375 -10.375 C 6.347656 -10.257812 6.789062 -10.078125 7.1875 -9.828125 C 7.59375 -9.585938 7.921875 -9.28125 8.171875 -8.90625 C 8.421875 -8.539062 8.546875 -8.09375 8.546875 -7.5625 C 8.546875 -7.375 8.515625 -7.253906 8.453125 -7.203125 C 8.390625 -7.148438 8.269531 -7.125 8.09375 -7.125 L 6.546875 -7.125 C 6.398438 -7.125 6.300781 -7.164062 6.25 -7.25 C 6.207031 -7.34375 6.164062 -7.441406 6.125 -7.546875 C 6.09375 -7.628906 6.050781 -7.707031 6 -7.78125 C 5.957031 -7.851562 5.890625 -7.9375 5.796875 -8.03125 C 5.648438 -8.175781 5.453125 -8.28125 5.203125 -8.34375 C 4.953125 -8.414062 4.707031 -8.453125 4.46875 -8.453125 C 4.300781 -8.453125 4.109375 -8.425781 3.890625 -8.375 C 3.671875 -8.320312 3.484375 -8.226562 3.328125 -8.09375 C 3.171875 -7.96875 3.09375 -7.78125 3.09375 -7.53125 C 3.09375 -7.289062 3.210938 -7.085938 3.453125 -6.921875 C 3.691406 -6.753906 3.976562 -6.609375 4.3125 -6.484375 C 4.65625 -6.367188 4.984375 -6.269531 5.296875 -6.1875 C 5.617188 -6.113281 5.859375 -6.046875 6.015625 -5.984375 Z M 6.015625 -5.984375 "/></g></g></g><g fill="#ff00ff" fill-opacity="1"><g transform="translate(74.156178, 19.118269)"><g><path d="M 5.140625 -10.3125 C 6.484375 -10.3125 7.503906 -9.976562 8.203125 -9.3125 C 8.898438 -8.644531 9.25 -7.765625 9.25 -6.671875 C 9.25 -5.585938 8.894531 -4.710938 8.1875 -4.046875 C 7.476562 -3.390625 6.457031 -3.0625 5.125 -3.0625 L 3.625 -3.0625 L 3.625 -0.453125 C 3.625 -0.273438 3.582031 -0.15625 3.5 -0.09375 C 3.425781 -0.03125 3.316406 0 3.171875 0 L 1.609375 0 C 1.472656 0 1.363281 -0.03125 1.28125 -0.09375 C 1.195312 -0.15625 1.15625 -0.273438 1.15625 -0.453125 L 1.15625 -9.859375 C 1.15625 -10.003906 1.1875 -10.113281 1.25 -10.1875 C 1.3125 -10.269531 1.429688 -10.3125 1.609375 -10.3125 Z M 5.125 -5.171875 C 5.738281 -5.171875 6.179688 -5.316406 6.453125 -5.609375 C 6.734375 -5.898438 6.875 -6.238281 6.875 -6.625 C 6.875 -7.03125 6.734375 -7.378906 6.453125 -7.671875 C 6.179688 -7.960938 5.738281 -8.109375 5.125 -8.109375 L 3.625 -8.109375 L 3.625 -5.171875 Z M 5.125 -5.171875 "/></g></g></g><g fill="#ff00ff" fill-opacity="1"><g transform="translate(83.988433, 19.118269)"><g><path d="M 9.265625 -3.3125 C 9.265625 -2.6875 9.132812 -2.148438 8.875 -1.703125 C 8.613281 -1.253906 8.269531 -0.882812 7.84375 -0.59375 C 7.425781 -0.3125 6.972656 -0.101562 6.484375 0.03125 C 5.992188 0.164062 5.515625 0.234375 5.046875 0.234375 C 4.578125 0.234375 4.097656 0.164062 3.609375 0.03125 C 3.128906 -0.101562 2.675781 -0.3125 2.25 -0.59375 C 1.832031 -0.882812 1.492188 -1.253906 1.234375 -1.703125 C 0.984375 -2.148438 0.859375 -2.6875 0.859375 -3.3125 L 0.859375 -7 C 0.859375 -7.625 0.984375 -8.160156 1.234375 -8.609375 C 1.492188 -9.054688 1.832031 -9.421875 2.25 -9.703125 C 2.675781 -9.992188 3.128906 -10.207031 3.609375 -10.34375 C 4.097656 -10.476562 4.578125 -10.546875 5.046875 -10.546875 C 5.515625 -10.546875 5.992188 -10.476562 6.484375 -10.34375 C 6.972656 -10.207031 7.425781 -9.992188 7.84375 -9.703125 C 8.269531 -9.421875 8.613281 -9.054688 8.875 -8.609375 C 9.132812 -8.160156 9.265625 -7.625 9.265625 -7 Z M 6.796875 -6.78125 C 6.796875 -7.28125 6.632812 -7.671875 6.3125 -7.953125 C 5.988281 -8.234375 5.566406 -8.375 5.046875 -8.375 C 4.535156 -8.375 4.117188 -8.234375 3.796875 -7.953125 C 3.472656 -7.671875 3.3125 -7.28125 3.3125 -6.78125 L 3.3125 -3.53125 C 3.3125 -3.03125 3.472656 -2.640625 3.796875 -2.359375 C 4.117188 -2.078125 4.535156 -1.9375 5.046875 -1.9375 C 5.566406 -1.9375 5.988281 -2.078125 6.3125 -2.359375 C 6.632812 -2.640625 6.796875 -3.03125 6.796875 -3.53125 Z M 6.796875 -6.78125 "/></g></g></g><g fill="#ff00ff" fill-opacity="1"><g transform="translate(94.086858, 19.118269)"><g><path d="M 8.140625 -10.3125 C 8.316406 -10.3125 8.4375 -10.269531 8.5 -10.1875 C 8.5625 -10.113281 8.59375 -10.003906 8.59375 -9.859375 L 8.59375 -8.5625 C 8.59375 -8.425781 8.5625 -8.316406 8.5 -8.234375 C 8.4375 -8.148438 8.316406 -8.109375 8.140625 -8.109375 L 5.734375 -8.109375 L 5.734375 -0.453125 C 5.734375 -0.273438 5.691406 -0.15625 5.609375 -0.09375 C 5.535156 -0.03125 5.425781 0 5.28125 0 L 3.734375 0 C 3.597656 0 3.488281 -0.03125 3.40625 -0.09375 C 3.320312 -0.15625 3.28125 -0.273438 3.28125 -0.453125 L 3.28125 -8.109375 L 0.859375 -8.109375 C 0.679688 -8.109375 0.5625 -8.148438 0.5 -8.234375 C 0.4375 -8.316406 0.40625 -8.425781 0.40625 -8.5625 L 0.40625 -9.859375 C 0.40625 -10.003906 0.4375 -10.113281 0.5 -10.1875 C 0.5625 -10.269531 0.679688 -10.3125 0.859375 -10.3125 Z M 8.140625 -10.3125 "/></g></g></g><g fill="#00ffff" fill-opacity="1"><g transform="translate(64.055443, 19.894486)"><g><path d="M 6.015625 -5.984375 C 6.296875 -5.898438 6.597656 -5.796875 6.921875 -5.671875 C 7.242188 -5.554688 7.546875 -5.394531 7.828125 -5.1875 C 8.117188 -4.988281 8.351562 -4.71875 8.53125 -4.375 C 8.71875 -4.03125 8.8125 -3.59375 8.8125 -3.0625 C 8.8125 -2.3125 8.628906 -1.691406 8.265625 -1.203125 C 7.898438 -0.722656 7.40625 -0.363281 6.78125 -0.125 C 6.15625 0.113281 5.441406 0.234375 4.640625 0.234375 C 4.148438 0.234375 3.65625 0.160156 3.15625 0.015625 C 2.65625 -0.117188 2.195312 -0.320312 1.78125 -0.59375 C 1.375 -0.875 1.046875 -1.222656 0.796875 -1.640625 C 0.546875 -2.054688 0.421875 -2.539062 0.421875 -3.09375 C 0.421875 -3.269531 0.453125 -3.382812 0.515625 -3.4375 C 0.578125 -3.5 0.695312 -3.53125 0.875 -3.53125 L 2.390625 -3.53125 C 2.578125 -3.53125 2.71875 -3.503906 2.8125 -3.453125 C 2.90625 -3.410156 2.957031 -3.289062 2.96875 -3.09375 C 2.976562 -2.988281 3.003906 -2.882812 3.046875 -2.78125 C 3.085938 -2.675781 3.160156 -2.5625 3.265625 -2.4375 C 3.421875 -2.25 3.640625 -2.113281 3.921875 -2.03125 C 4.210938 -1.957031 4.503906 -1.921875 4.796875 -1.921875 C 5.222656 -1.921875 5.582031 -1.988281 5.875 -2.125 C 6.175781 -2.257812 6.328125 -2.550781 6.328125 -3 C 6.328125 -3.289062 6.191406 -3.503906 5.921875 -3.640625 C 5.648438 -3.773438 5.304688 -3.882812 4.890625 -3.96875 C 4.484375 -4.0625 4.054688 -4.175781 3.609375 -4.3125 C 3.085938 -4.476562 2.59375 -4.675781 2.125 -4.90625 C 1.65625 -5.132812 1.273438 -5.445312 0.984375 -5.84375 C 0.703125 -6.238281 0.5625 -6.765625 0.5625 -7.421875 C 0.5625 -8.109375 0.738281 -8.675781 1.09375 -9.125 C 1.457031 -9.582031 1.929688 -9.925781 2.515625 -10.15625 C 3.109375 -10.394531 3.726562 -10.523438 4.375 -10.546875 C 4.875 -10.546875 5.367188 -10.488281 5.859375 -10.375 C 6.347656 -10.257812 6.789062 -10.078125 7.1875 -9.828125 C 7.59375 -9.585938 7.921875 -9.28125 8.171875 -8.90625 C 8.421875 -8.539062 8.546875 -8.09375 8.546875 -7.5625 C 8.546875 -7.375 8.515625 -7.253906 8.453125 -7.203125 C 8.390625 -7.148438 8.269531 -7.125 8.09375 -7.125 L 6.546875 -7.125 C 6.398438 -7.125 6.300781 -7.164062 6.25 -7.25 C 6.207031 -7.34375 6.164062 -7.441406 6.125 -7.546875 C 6.09375 -7.628906 6.050781 -7.707031 6 -7.78125 C 5.957031 -7.851562 5.890625 -7.9375 5.796875 -8.03125 C 5.648438 -8.175781 5.453125 -8.28125 5.203125 -8.34375 C 4.953125 -8.414062 4.707031 -8.453125 4.46875 -8.453125 C 4.300781 -8.453125 4.109375 -8.425781 3.890625 -8.375 C 3.671875 -8.320312 3.484375 -8.226562 3.328125 -8.09375 C 3.171875 -7.96875 3.09375 -7.78125 3.09375 -7.53125 C 3.09375 -7.289062 3.210938 -7.085938 3.453125 -6.921875 C 3.691406 -6.753906 3.976562 -6.609375 4.3125 -6.484375 C 4.65625 -6.367188 4.984375 -6.269531 5.296875 -6.1875 C 5.617188 -6.113281 5.859375 -6.046875 6.015625 -5.984375 Z M 6.015625 -5.984375 "/></g></g></g><g fill="#00ffff" fill-opacity="1"><g transform="translate(73.527608, 19.894486)"><g><path d="M 5.140625 -10.3125 C 6.484375 -10.3125 7.503906 -9.976562 8.203125 -9.3125 C 8.898438 -8.644531 9.25 -7.765625 9.25 -6.671875 C 9.25 -5.585938 8.894531 -4.710938 8.1875 -4.046875 C 7.476562 -3.390625 6.457031 -3.0625 5.125 -3.0625 L 3.625 -3.0625 L 3.625 -0.453125 C 3.625 -0.273438 3.582031 -0.15625 3.5 -0.09375 C 3.425781 -0.03125 3.316406 0 3.171875 0 L 1.609375 0 C 1.472656 0 1.363281 -0.03125 1.28125 -0.09375 C 1.195312 -0.15625 1.15625 -0.273438 1.15625 -0.453125 L 1.15625 -9.859375 C 1.15625 -10.003906 1.1875 -10.113281 1.25 -10.1875 C 1.3125 -10.269531 1.429688 -10.3125 1.609375 -10.3125 Z M 5.125 -5.171875 C 5.738281 -5.171875 6.179688 -5.316406 6.453125 -5.609375 C 6.734375 -5.898438 6.875 -6.238281 6.875 -6.625 C 6.875 -7.03125 6.734375 -7.378906 6.453125 -7.671875 C 6.179688 -7.960938 5.738281 -8.109375 5.125 -8.109375 L 3.625 -8.109375 L 3.625 -5.171875 Z M 5.125 -5.171875 "/></g></g></g><g fill="#00ffff" fill-opacity="1"><g transform="translate(83.359863, 19.894486)"><g><path d="M 9.265625 -3.3125 C 9.265625 -2.6875 9.132812 -2.148438 8.875 -1.703125 C 8.613281 -1.253906 8.269531 -0.882812 7.84375 -0.59375 C 7.425781 -0.3125 6.972656 -0.101562 6.484375 0.03125 C 5.992188 0.164062 5.515625 0.234375 5.046875 0.234375 C 4.578125 0.234375 4.097656 0.164062 3.609375 0.03125 C 3.128906 -0.101562 2.675781 -0.3125 2.25 -0.59375 C 1.832031 -0.882812 1.492188 -1.253906 1.234375 -1.703125 C 0.984375 -2.148438 0.859375 -2.6875 0.859375 -3.3125 L 0.859375 -7 C 0.859375 -7.625 0.984375 -8.160156 1.234375 -8.609375 C 1.492188 -9.054688 1.832031 -9.421875 2.25 -9.703125 C 2.675781 -9.992188 3.128906 -10.207031 3.609375 -10.34375 C 4.097656 -10.476562 4.578125 -10.546875 5.046875 -10.546875 C 5.515625 -10.546875 5.992188 -10.476562 6.484375 -10.34375 C 6.972656 -10.207031 7.425781 -9.992188 7.84375 -9.703125 C 8.269531 -9.421875 8.613281 -9.054688 8.875 -8.609375 C 9.132812 -8.160156 9.265625 -7.625 9.265625 -7 Z M 6.796875 -6.78125 C 6.796875 -7.28125 6.632812 -7.671875 6.3125 -7.953125 C 5.988281 -8.234375 5.566406 -8.375 5.046875 -8.375 C 4.535156 -8.375 4.117188 -8.234375 3.796875 -7.953125 C 3.472656 -7.671875 3.3125 -7.28125 3.3125 -6.78125 L 3.3125 -3.53125 C 3.3125 -3.03125 3.472656 -2.640625 3.796875 -2.359375 C 4.117188 -2.078125 4.535156 -1.9375 5.046875 -1.9375 C 5.566406 -1.9375 5.988281 -2.078125 6.3125 -2.359375 C 6.632812 -2.640625 6.796875 -3.03125 6.796875 -3.53125 Z M 6.796875 -6.78125 "/></g></g></g><g fill="#00ffff" fill-opacity="1"><g transform="translate(93.458289, 19.894486)"><g><path d="M 8.140625 -10.3125 C 8.316406 -10.3125 8.4375 -10.269531 8.5 -10.1875 C 8.5625 -10.113281 8.59375 -10.003906 8.59375 -9.859375 L 8.59375 -8.5625 C 8.59375 -8.425781 8.5625 -8.316406 8.5 -8.234375 C 8.4375 -8.148438 8.316406 -8.109375 8.140625 -8.109375 L 5.734375 -8.109375 L 5.734375 -0.453125 C 5.734375 -0.273438 5.691406 -0.15625 5.609375 -0.09375 C 5.535156 -0.03125 5.425781 0 5.28125 0 L 3.734375 0 C 3.597656 0 3.488281 -0.03125 3.40625 -0.09375 C 3.320312 -0.15625 3.28125 -0.273438 3.28125 -0.453125 L 3.28125 -8.109375 L 0.859375 -8.109375 C 0.679688 -8.109375 0.5625 -8.148438 0.5 -8.234375 C 0.4375 -8.316406 0.40625 -8.425781 0.40625 -8.5625 L 0.40625 -9.859375 C 0.40625 -10.003906 0.4375 -10.113281 0.5 -10.1875 C 0.5625 -10.269531 0.679688 -10.3125 0.859375 -10.3125 Z M 8.140625 -10.3125 "/></g></g></g><g fill="#ffffff" fill-opacity="1"><g transform="translate(64.369728, 19.506377)"><g><path d="M 6.015625 -5.984375 C 6.296875 -5.898438 6.597656 -5.796875 6.921875 -5.671875 C 7.242188 -5.554688 7.546875 -5.394531 7.828125 -5.1875 C 8.117188 -4.988281 8.351562 -4.71875 8.53125 -4.375 C 8.71875 -4.03125 8.8125 -3.59375 8.8125 -3.0625 C 8.8125 -2.3125 8.628906 -1.691406 8.265625 -1.203125 C 7.898438 -0.722656 7.40625 -0.363281 6.78125 -0.125 C 6.15625 0.113281 5.441406 0.234375 4.640625 0.234375 C 4.148438 0.234375 3.65625 0.160156 3.15625 0.015625 C 2.65625 -0.117188 2.195312 -0.320312 1.78125 -0.59375 C 1.375 -0.875 1.046875 -1.222656 0.796875 -1.640625 C 0.546875 -2.054688 0.421875 -2.539062 0.421875 -3.09375 C 0.421875 -3.269531 0.453125 -3.382812 0.515625 -3.4375 C 0.578125 -3.5 0.695312 -3.53125 0.875 -3.53125 L 2.390625 -3.53125 C 2.578125 -3.53125 2.71875 -3.503906 2.8125 -3.453125 C 2.90625 -3.410156 2.957031 -3.289062 2.96875 -3.09375 C 2.976562 -2.988281 3.003906 -2.882812 3.046875 -2.78125 C 3.085938 -2.675781 3.160156 -2.5625 3.265625 -2.4375 C 3.421875 -2.25 3.640625 -2.113281 3.921875 -2.03125 C 4.210938 -1.957031 4.503906 -1.921875 4.796875 -1.921875 C 5.222656 -1.921875 5.582031 -1.988281 5.875 -2.125 C 6.175781 -2.257812 6.328125 -2.550781 6.328125 -3 C 6.328125 -3.289062 6.191406 -3.503906 5.921875 -3.640625 C 5.648438 -3.773438 5.304688 -3.882812 4.890625 -3.96875 C 4.484375 -4.0625 4.054688 -4.175781 3.609375 -4.3125 C 3.085938 -4.476562 2.59375 -4.675781 2.125 -4.90625 C 1.65625 -5.132812 1.273438 -5.445312 0.984375 -5.84375 C 0.703125 -6.238281 0.5625 -6.765625 0.5625 -7.421875 C 0.5625 -8.109375 0.738281 -8.675781 1.09375 -9.125 C 1.457031 -9.582031 1.929688 -9.925781 2.515625 -10.15625 C 3.109375 -10.394531 3.726562 -10.523438 4.375 -10.546875 C 4.875 -10.546875 5.367188 -10.488281 5.859375 -10.375 C 6.347656 -10.257812 6.789062 -10.078125 7.1875 -9.828125 C 7.59375 -9.585938 7.921875 -9.28125 8.171875 -8.90625 C 8.421875 -8.539062 8.546875 -8.09375 8.546875 -7.5625 C 8.546875 -7.375 8.515625 -7.253906 8.453125 -7.203125 C 8.390625 -7.148438 8.269531 -7.125 8.09375 -7.125 L 6.546875 -7.125 C 6.398438 -7.125 6.300781 -7.164062 6.25 -7.25 C 6.207031 -7.34375 6.164062 -7.441406 6.125 -7.546875 C 6.09375 -7.628906 6.050781 -7.707031 6 -7.78125 C 5.957031 -7.851562 5.890625 -7.9375 5.796875 -8.03125 C 5.648438 -8.175781 5.453125 -8.28125 5.203125 -8.34375 C 4.953125 -8.414062 4.707031 -8.453125 4.46875 -8.453125 C 4.300781 -8.453125 4.109375 -8.425781 3.890625 -8.375 C 3.671875 -8.320312 3.484375 -8.226562 3.328125 -8.09375 C 3.171875 -7.96875 3.09375 -7.78125 3.09375 -7.53125 C 3.09375 -7.289062 3.210938 -7.085938 3.453125 -6.921875 C 3.691406 -6.753906 3.976562 -6.609375 4.3125 -6.484375 C 4.65625 -6.367188 4.984375 -6.269531 5.296875 -6.1875 C 5.617188 -6.113281 5.859375 -6.046875 6.015625 -5.984375 Z M 6.015625 -5.984375 "/></g></g></g><g fill="#ffffff" fill-opacity="1"><g transform="translate(73.841893, 19.506377)"><g><path d="M 5.140625 -10.3125 C 6.484375 -10.3125 7.503906 -9.976562 8.203125 -9.3125 C 8.898438 -8.644531 9.25 -7.765625 9.25 -6.671875 C 9.25 -5.585938 8.894531 -4.710938 8.1875 -4.046875 C 7.476562 -3.390625 6.457031 -3.0625 5.125 -3.0625 L 3.625 -3.0625 L 3.625 -0.453125 C 3.625 -0.273438 3.582031 -0.15625 3.5 -0.09375 C 3.425781 -0.03125 3.316406 0 3.171875 0 L 1.609375 0 C 1.472656 0 1.363281 -0.03125 1.28125 -0.09375 C 1.195312 -0.15625 1.15625 -0.273438 1.15625 -0.453125 L 1.15625 -9.859375 C 1.15625 -10.003906 1.1875 -10.113281 1.25 -10.1875 C 1.3125 -10.269531 1.429688 -10.3125 1.609375 -10.3125 Z M 5.125 -5.171875 C 5.738281 -5.171875 6.179688 -5.316406 6.453125 -5.609375 C 6.734375 -5.898438 6.875 -6.238281 6.875 -6.625 C 6.875 -7.03125 6.734375 -7.378906 6.453125 -7.671875 C 6.179688 -7.960938 5.738281 -8.109375 5.125 -8.109375 L 3.625 -8.109375 L 3.625 -5.171875 Z M 5.125 -5.171875 "/></g></g></g><g fill="#ffffff" fill-opacity="1"><g transform="translate(83.674148, 19.506377)"><g><path d="M 9.265625 -3.3125 C 9.265625 -2.6875 9.132812 -2.148438 8.875 -1.703125 C 8.613281 -1.253906 8.269531 -0.882812 7.84375 -0.59375 C 7.425781 -0.3125 6.972656 -0.101562 6.484375 0.03125 C 5.992188 0.164062 5.515625 0.234375 5.046875 0.234375 C 4.578125 0.234375 4.097656 0.164062 3.609375 0.03125 C 3.128906 -0.101562 2.675781 -0.3125 2.25 -0.59375 C 1.832031 -0.882812 1.492188 -1.253906 1.234375 -1.703125 C 0.984375 -2.148438 0.859375 -2.6875 0.859375 -3.3125 L 0.859375 -7 C 0.859375 -7.625 0.984375 -8.160156 1.234375 -8.609375 C 1.492188 -9.054688 1.832031 -9.421875 2.25 -9.703125 C 2.675781 -9.992188 3.128906 -10.207031 3.609375 -10.34375 C 4.097656 -10.476562 4.578125 -10.546875 5.046875 -10.546875 C 5.515625 -10.546875 5.992188 -10.476562 6.484375 -10.34375 C 6.972656 -10.207031 7.425781 -9.992188 7.84375 -9.703125 C 8.269531 -9.421875 8.613281 -9.054688 8.875 -8.609375 C 9.132812 -8.160156 9.265625 -7.625 9.265625 -7 Z M 6.796875 -6.78125 C 6.796875 -7.28125 6.632812 -7.671875 6.3125 -7.953125 C 5.988281 -8.234375 5.566406 -8.375 5.046875 -8.375 C 4.535156 -8.375 4.117188 -8.234375 3.796875 -7.953125 C 3.472656 -7.671875 3.3125 -7.28125 3.3125 -6.78125 L 3.3125 -3.53125 C 3.3125 -3.03125 3.472656 -2.640625 3.796875 -2.359375 C 4.117188 -2.078125 4.535156 -1.9375 5.046875 -1.9375 C 5.566406 -1.9375 5.988281 -2.078125 6.3125 -2.359375 C 6.632812 -2.640625 6.796875 -3.03125 6.796875 -3.53125 Z M 6.796875 -6.78125 "/></g></g></g><g fill="#ffffff" fill-opacity="1"><g transform="translate(93.772573, 19.506377)"><g><path d="M 8.140625 -10.3125 C 8.316406 -10.3125 8.4375 -10.269531 8.5 -10.1875 C 8.5625 -10.113281 8.59375 -10.003906 8.59375 -9.859375 L 8.59375 -8.5625 C 8.59375 -8.425781 8.5625 -8.316406 8.5 -8.234375 C 8.4375 -8.148438 8.316406 -8.109375 8.140625 -8.109375 L 5.734375 -8.109375 L 5.734375 -0.453125 C 5.734375 -0.273438 5.691406 -0.15625 5.609375 -0.09375 C 5.535156 -0.03125 5.425781 0 5.28125 0 L 3.734375 0 C 3.597656 0 3.488281 -0.03125 3.40625 -0.09375 C 3.320312 -0.15625 3.28125 -0.273438 3.28125 -0.453125 L 3.28125 -8.109375 L 0.859375 -8.109375 C 0.679688 -8.109375 0.5625 -8.148438 0.5 -8.234375 C 0.4375 -8.316406 0.40625 -8.425781 0.40625 -8.5625 L 0.40625 -9.859375 C 0.40625 -10.003906 0.4375 -10.113281 0.5 -10.1875 C 0.5625 -10.269531 0.679688 -10.3125 0.859375 -10.3125 Z M 8.140625 -10.3125 "/></g></g></g></svg>